<svg width="100" height="100" fill="none" xmlns="http://www.w3.org/2000/svg"><path d="M36.719 17.852v7.93l-4.336.038-4.356.059-.058 4.394-.059 4.395-1.992.938c-2.54 1.21-5.234 3.105-7.383 5.214-1.914 1.895-4.18 4.864-3.926 5.117.098.098 1.426.899 2.97 1.797l2.792 1.641 1.582-.938c.88-.507 2.93-1.718 4.59-2.695l3.008-1.758 1.582.938c6.23 3.652 7.46 4.355 7.637 4.355.117 0 2.167-1.172 4.59-2.597 2.421-1.426 4.492-2.598 4.59-2.598.116 0 2.226 1.191 4.687 2.656l4.492 2.637.586-.352c.332-.175 1.66-.976 2.988-1.738l2.383-1.406-.82-1.191c-1.23-1.758-4.492-5.098-6.407-6.524-.918-.684-2.734-1.797-4.043-2.46l-2.402-1.212v-8.711H40.82l-.039-7.87-.058-7.852L38.73 10l-2.012-.059v7.91Z" fill="#fff"/><path d="m64.805 16.348-.059 6.406-3.262.058-3.28.04V29.805l-1.017.43c-1.015.43-4.257 2.382-4.257 2.578 0 .058.664.449 1.465.878 5.273 2.754 10.468 8.36 13.164 14.2 3.496 7.558 3.867 16.406.996 24.18-.977 2.656-1.016 2.402.312 2.245a48.129 48.129 0 0 0 2.617-.43c8.184-1.62 15.04-7.89 17.461-15.937.743-2.48.957-3.925.957-6.68 0-6.308-2.304-11.913-6.699-16.308-1.758-1.758-4.043-3.398-6.387-4.57l-1.425-.703v-6.836l-3.262-.04-3.281-.058-.059-6.406-.039-6.387h-3.906l-.04 6.387Z" fill="#fff"/><path d="M25 50.117c-2.422 1.426-4.55 2.578-4.727 2.54-.175-.04-1.875-.977-3.75-2.071-1.894-1.094-3.515-1.934-3.613-1.875-.312.195-1.523 3.496-2.05 5.586-1.172 4.766-1.172 8.945-.02 13.77.41 1.777 1.426 4.706 1.836 5.331.117.196 1.035-.254 3.75-1.835 1.973-1.153 3.672-2.09 3.789-2.09.098 0 2.226 1.21 4.726 2.656l4.532 2.676 4.55-2.676c2.5-1.465 4.649-2.656 4.746-2.656.118 0 2.247 1.191 4.747 2.656l4.53 2.656 4.552-2.656c2.48-1.465 4.629-2.656 4.726-2.656.117 0 1.817.937 3.77 2.09 1.972 1.171 3.613 2.07 3.633 2.03.039-.019.39-.859.761-1.835 2.754-6.914 2.598-15.274-.39-22.012-.274-.605-.567-1.113-.645-1.113-.078 0-1.66.879-3.496 1.953a119.764 119.764 0 0 1-3.633 2.09c-.175.058-2.168-.996-4.726-2.5-2.442-1.426-4.532-2.578-4.668-2.578-.117 0-2.207 1.152-4.649 2.578-2.656 1.562-4.55 2.539-4.746 2.48-.156-.058-2.187-1.23-4.492-2.578-2.305-1.348-4.297-2.48-4.414-2.52-.137-.038-2.207 1.114-4.629 2.56Zm-8.594 10.918V62.5H13.867v-2.93h2.54v1.465Zm9.961 0V62.5H21.29v-2.93H26.367v1.465Zm9.961 0V62.5H31.25v-2.93H36.328v1.465Zm9.922.04.059 1.425H41.21v-2.949l2.5.058 2.48.059.059 1.406Zm9.805-.04V62.5h-4.883v-2.93h4.883v1.465Zm7.617 0V62.5h-2.54v-2.93h2.54v1.465Z" fill="#FFE800"/><path d="M17.285 74.512c-1.504.898-2.812 1.68-2.93 1.719-.097.039.235.664.743 1.367 4.511 6.308 10.547 10.273 18.183 11.894 2.578.547 7.696.606 10.41.098 5.82-1.074 11.25-3.926 15.391-8.086 1.856-1.895 4.082-4.785 3.965-5.156-.04-.117-1.348-.957-2.89-1.875-2.071-1.211-2.91-1.602-3.126-1.465-2.07 1.27-8.808 5.117-8.984 5.117-.137 0-2.09-1.094-4.375-2.402-2.266-1.328-4.316-2.52-4.55-2.637-.372-.195-.958.078-4.923 2.402-2.48 1.446-4.61 2.637-4.726 2.637-.137 0-2.188-1.152-4.59-2.539-2.383-1.406-4.473-2.578-4.61-2.617-.136-.059-1.484.644-2.988 1.543Z" fill="#fff"/></svg>