<svg width="100" height="100" fill="none" xmlns="http://www.w3.org/2000/svg"><path d="M65.625 7.188c-1.016 1.015-.86 1.562.996 3.476 1.66 1.7 2.246 1.992 3.184 1.64.586-.214 1.074-1.171.957-1.835-.059-.254-.82-1.172-1.68-2.031-1.953-1.934-2.54-2.149-3.457-1.25ZM74.277 8.457c-2.07 2.07-2.226 2.5-1.23 3.496.527.508.703.586 1.328.489.586-.098 1.055-.45 2.344-1.758 1.387-1.426 1.601-1.739 1.601-2.305-.02-.742-.273-1.172-.918-1.504-.879-.469-1.25-.293-3.125 1.582ZM68.828 14.219c-.234.039-1.172.84-2.11 1.777-1.386 1.445-1.679 1.836-1.679 2.344 0 .879.742 1.582 1.68 1.582.625 0 .898-.176 2.226-1.485.84-.82 1.64-1.738 1.778-2.07.468-1.133-.625-2.363-1.895-2.148ZM73.477 14.375c-.762.313-1.075.918-.938 1.719.098.468.586 1.093 1.758 2.226 1.66 1.621 2.148 1.856 3.145 1.485.37-.157.878-1.075.878-1.66 0-.528-3.164-3.81-3.808-3.926-.254-.059-.723.02-1.035.156ZM92.46 15.254c-1.034.293-2.48 1.387-3.144 2.383-1.543 2.305-1.172 5.508.86 7.383 1.23 1.133 2.343 1.582 3.984 1.582 2.305 0 4.258-1.23 5.293-3.34.664-1.348.625-3.652-.078-5.02-1.29-2.46-4.278-3.75-6.914-2.988Zm3.067 3.555c.781.527 1.29 1.738 1.075 2.578-.079.293-.43.84-.801 1.21-.567.567-.782.645-1.621.645-1.192 0-2.07-.625-2.364-1.718-.644-2.266 1.758-4.024 3.711-2.715ZM7.676 16.797c-.899.371-1.074.976-.996 3.418.058 2.129.097 2.305.527 2.656.703.567 1.836.488 2.344-.137.351-.449.41-.8.41-2.734 0-2.012-.039-2.246-.43-2.695-.507-.567-1.23-.762-1.855-.508ZM48.633 21.27c-4.961 3.77-8.711 9.726-9.903 15.78-.39 2.071-.449 6.954-.078 8.829.39 2.012 1.152 4.473 1.895 6.055l.683 1.484.625-1.23c1.504-2.95 3.653-5.098 6.504-6.504l1.563-.782.879.332c2.968 1.153 5.78 3.848 7.402 7.051l.566 1.133.684-1.484c2.578-5.547 2.91-12.54.86-18.301-1.387-3.965-3.536-7.305-6.563-10.235-1.563-1.503-3.496-3.085-3.79-3.085-.038 0-.624.43-1.327.957ZM.977 23.574c-1.29.664-1.29 2.188 0 2.852.566.293 1.054.351 2.714.293 1.934-.059 2.032-.098 2.48-.606.606-.703.606-1.523 0-2.226-.448-.508-.546-.547-2.48-.606-1.66-.058-2.148 0-2.714.293ZM11.016 23.516c-1.407.625-1.27 2.558.215 3.047.449.156 1.425.214 2.558.156 1.582-.059 1.895-.137 2.324-.547a1.603 1.603 0 0 0-.02-2.363c-.448-.41-.683-.47-2.48-.508-1.386-.04-2.168.02-2.597.215ZM7.207 27.129c-.45.351-.469.488-.469 2.832 0 2.266.04 2.48.43 2.89.644.645 1.738.587 2.324-.117.43-.488.469-.703.469-2.734 0-1.933-.059-2.285-.41-2.734-.508-.625-1.64-.703-2.344-.137ZM21.289 33.73c-1.836.098-3.672.47-3.79.743-.038.136-.194 1.308-.331 2.617-.41 3.906.234 8.418 1.738 12.148.664 1.68.332 1.582 4.043 1.055 3.965-.566 8.965-.137 12.48 1.074.645.215 1.192.352 1.231.313.059-.04-.137-.801-.41-1.68-1.055-3.3-1.426-7.559-1.035-11.64l.136-1.583-1.406-.644C30 34.375 25.352 33.496 21.29 33.73ZM75.684 33.711c-3.614.313-6.309.977-9.258 2.266l-1.817.8.118.899c.566 4.433.195 8.77-1.075 12.676-.234.683-.37 1.27-.332 1.328.059.039.606-.098 1.25-.313 3.516-1.21 8.516-1.64 12.48-1.074 3.712.527 3.38.625 4.044-1.055 1.465-3.672 2.129-8.203 1.738-11.953-.312-3.222-.234-3.047-1.738-3.281-1.543-.234-4.317-.39-5.41-.293Z" fill="#fff"/><path d="M48.926 49.102c-3.086 2.03-5.059 5.351-5.45 9.12-.234 2.13-.058 2.579 1.211 3.36 2.676 1.66 5.137 4.707 6.094 7.54.274.76.567 1.386.664 1.386.098 0 .801-.645 1.563-1.426 2.52-2.559 3.437-5.078 3.476-9.414.02-2.285-.039-2.695-.527-4.18-.918-2.715-2.598-4.902-4.863-6.367-.586-.371-1.094-.684-1.133-.664-.04 0-.488.293-1.035.645Z" fill="#007E62"/><path d="M22.656 53.633c-4.59.742-9.55 3.144-12.988 6.289-1.25 1.152-3.105 3.223-3.848 4.297l-.566.82 1.074 1.426c2.305 3.086 6.27 6.25 9.766 7.852 1.797.82 4.14 1.542 6.367 1.953 1.895.351 6.973.43 7.305.097.136-.136.117-.195-.04-.195-.39 0-2.968-2.578-3.788-3.79-1.641-2.401-2.657-5.526-2.52-7.773.02-.468 1.23-1.757 2.598-2.832 1.425-1.074 3.965-2.285 5.742-2.714 1.758-.43 5.039-.43 6.777 0 .742.175 1.426.312 1.524.312.117 0 .175-.469.136-1.113l-.058-1.133-2.149-1.074c-3.652-1.856-6.406-2.54-10.644-2.657-1.934-.039-3.418.02-4.688.235ZM70.02 53.535c-2.93.371-6.211 1.465-8.829 2.91l-1.425.801v1.055c0 .586.078 1.074.175 1.074.118 0 .782-.137 1.524-.313 1.894-.468 5.195-.43 7.11.079 2.421.644 4.784 1.953 6.698 3.75 1.27 1.172 1.465 1.66 1.25 3.183-.488 3.594-2.558 7.227-5.449 9.512-.527.41-.879.8-.761.879.39.254 5.468.117 7.226-.196 6.348-1.093 12.324-4.726 16.055-9.726L94.727 65l-.567-.82c-1.347-1.954-4.004-4.57-6.308-6.211-5.02-3.614-11.543-5.215-17.833-4.434Z" fill="#fff"/><path d="M33.477 62.09c-2.051.332-4.551 1.465-5.977 2.754l-.82.722.254 1.114c.84 3.808 4.218 7.265 8.359 8.613l1.035.332.918-.82c2.285-1.993 5.137-3.203 8.516-3.575 1.328-.136 2.09-.312 2.09-.449 0-.527-1.621-3.379-2.442-4.316-2.617-2.969-8.086-4.98-11.933-4.375ZM63.047 62.11c-.527.078-1.484.351-2.168.566l-1.25.43-.254 1.113c-.762 3.437-3.047 6.875-5.957 8.965-.586.41-.586.43-.195.742.8.644 3.183 1.68 4.59 1.972 2.578.547 6.035 0 8.984-1.425 2.93-1.406 5.527-4.668 6.25-7.832.293-1.25.176-1.426-1.777-2.696-2.344-1.523-5.743-2.285-8.223-1.836ZM44.629 74.727c-2.871.625-5.137 2.129-7.344 4.902-2.07 2.598-2.91 4.941-2.91 8.066 0 1.934.156 2.754.82 4.434.371.977.43 1.016 1.27 1.152 1.054.156 2.91-.02 4.355-.43 2.578-.742 5.47-2.89 6.72-5l.507-.878-.39-.899c-1.446-3.261-1.563-8.086-.294-11.328.117-.273.02-.332-.605-.312-.43 0-1.367.136-2.13.293ZM50.215 76.719c-.371 1.113-.488 4.336-.215 5.742.469 2.402 2.344 5.683 4.316 7.598 2.344 2.265 6.348 3.652 9.239 3.222.82-.136.879-.175 1.25-1.152.664-1.68.82-2.5.82-4.434 0-2.851-.8-5.351-2.402-7.441l-.664-.84-2.52-.039c-1.934-.02-2.852-.117-3.945-.45-1.68-.487-3.477-1.366-4.746-2.284l-.899-.645-.234.723Z" fill="#007E62"/></svg>