<svg aria-hidden="true" style="position: absolute; width: 0; height: 0; overflow: hidden;" version="1.1" xmlns="http://www.w3.org/2000/svg" xmlns:xlink="http://www.w3.org/1999/xlink">
<defs>
<symbol id="cross" viewBox="0 0 32 32">
<path d="M25.333 8.547l-1.88-1.88-7.453 7.453-7.453-7.453-1.88 1.88 7.453 7.453-7.453 7.453 1.88 1.88 7.453-7.453 7.453 7.453 1.88-1.88-7.453-7.453 7.453-7.453z"></path>
</symbol>
<symbol id="decorations" viewBox="0 0 32 32">
<path fill="#fff" style="fill: var(--color2, #fff)" d="M11.75 5.713v2.538l-1.388 0.012-1.394 0.019-0.019 1.406-0.019 1.406-0.637 0.3c-0.813 0.387-1.675 0.994-2.363 1.668-0.612 0.606-1.338 1.556-1.256 1.637 0.031 0.031 0.456 0.288 0.95 0.575l0.893 0.525 0.506-0.3c0.282-0.162 0.938-0.55 1.469-0.862l0.963-0.563 0.506 0.3c1.994 1.169 2.387 1.394 2.444 1.394 0.037 0 0.693-0.375 1.469-0.831s1.437-0.831 1.469-0.831c0.037 0 0.712 0.381 1.5 0.85l1.437 0.844 0.188-0.113c0.106-0.056 0.531-0.312 0.956-0.556l0.763-0.45-0.262-0.381c-0.394-0.563-1.437-1.631-2.050-2.088-0.294-0.219-0.875-0.575-1.294-0.787l-0.769-0.388v-2.788h-2.75l-0.012-2.518-0.019-2.513-1.282-0.038v2.531z"></path>
<path fill="#fff" style="fill: var(--color2, #fff)" d="M20.738 5.231l-0.019 2.050-1.044 0.019-1.050 0.013v2.225l-0.325 0.138c-0.325 0.138-1.362 0.762-1.362 0.825 0 0.019 0.212 0.144 0.469 0.281 1.687 0.881 3.35 2.675 4.212 4.544 1.119 2.419 1.237 5.25 0.319 7.738-0.313 0.85-0.325 0.769 0.1 0.718 0.369-0.050 0.653-0.098 0.935-0.154l-0.098 0.016c2.619-0.518 4.813-2.525 5.588-5.1 0.238-0.794 0.306-1.256 0.306-2.138 0-2.019-0.737-3.812-2.144-5.219-0.563-0.563-1.294-1.087-2.044-1.462l-0.456-0.225v-2.188l-1.044-0.013-1.050-0.019-0.019-2.050-0.012-2.044h-1.25l-0.013 2.044z"></path>
<path fill="#ffe800" style="fill: var(--color3, #ffe800)" d="M8 16.037c-0.775 0.456-1.456 0.825-1.513 0.813s-0.6-0.313-1.2-0.663c-0.606-0.35-1.125-0.619-1.156-0.6-0.1 0.062-0.487 1.119-0.656 1.788-0.375 1.525-0.375 2.862-0.006 4.406 0.131 0.569 0.456 1.506 0.588 1.706 0.037 0.063 0.331-0.081 1.2-0.587 0.631-0.369 1.175-0.669 1.212-0.669 0.031 0 0.712 0.387 1.512 0.85l1.45 0.856 1.456-0.856c0.8-0.469 1.488-0.85 1.519-0.85 0.038 0 0.719 0.381 1.519 0.85l1.45 0.85 1.457-0.85c0.794-0.469 1.481-0.85 1.512-0.85 0.037 0 0.581 0.3 1.206 0.669 0.631 0.375 1.156 0.662 1.163 0.65 0.012-0.006 0.125-0.275 0.244-0.587 0.881-2.212 0.831-4.888-0.125-7.044-0.088-0.194-0.181-0.356-0.206-0.356s-0.531 0.281-1.119 0.625c-0.205 0.132-0.585 0.354-0.969 0.569l-0.193 0.1c-0.056 0.019-0.694-0.319-1.512-0.8-0.781-0.456-1.45-0.825-1.494-0.825-0.037 0-0.706 0.369-1.488 0.825-0.85 0.5-1.456 0.812-1.519 0.794-0.050-0.019-0.7-0.394-1.437-0.825s-1.375-0.794-1.412-0.806c-0.044-0.012-0.706 0.356-1.481 0.819zM5.25 19.531v0.469h-0.812v-0.938h0.813v0.469zM8.437 19.531v0.469h-1.625v-0.938h1.625v0.469zM11.625 19.531v0.469h-1.625v-0.938h1.625v0.469zM14.8 19.544l0.019 0.456h-1.632v-0.944l1.594 0.037 0.019 0.45zM17.938 19.531v0.469h-1.563v-0.938h1.563v0.469zM20.375 19.531v0.469h-0.813v-0.938h0.813v0.469z"></path>
<path fill="#fff" style="fill: var(--color2, #fff)" d="M5.531 23.844c-0.481 0.287-0.9 0.538-0.938 0.55-0.031 0.012 0.075 0.212 0.238 0.437 1.444 2.019 3.375 3.287 5.819 3.806 0.825 0.175 2.463 0.194 3.331 0.031 1.862-0.344 3.6-1.256 4.925-2.588 0.594-0.606 1.306-1.531 1.269-1.65-0.013-0.037-0.431-0.306-0.925-0.6-0.663-0.388-0.931-0.513-1-0.469-0.662 0.406-2.819 1.637-2.875 1.637-0.044 0-0.669-0.35-1.4-0.769-0.725-0.425-1.381-0.806-1.456-0.844-0.119-0.062-0.307 0.025-1.575 0.769-0.794 0.463-1.475 0.844-1.512 0.844-0.044 0-0.7-0.369-1.469-0.812-0.763-0.45-1.431-0.825-1.475-0.837-0.044-0.019-0.475 0.206-0.956 0.494z"></path>
</symbol>
<symbol id="flowers" viewBox="0 0 32 32">
<path fill="#fff" style="fill: var(--color2, #fff)" d="M21 2.3c-0.325 0.325-0.275 0.5 0.319 1.112 0.531 0.544 0.719 0.637 1.019 0.525 0.188-0.068 0.344-0.375 0.306-0.587-0.019-0.081-0.262-0.375-0.538-0.65-0.625-0.619-0.813-0.688-1.106-0.4zM23.769 2.706c-0.662 0.662-0.712 0.8-0.394 1.119 0.169 0.163 0.225 0.188 0.425 0.156 0.188-0.031 0.338-0.144 0.75-0.563 0.444-0.456 0.512-0.556 0.512-0.738-0.006-0.237-0.087-0.375-0.294-0.481-0.281-0.15-0.4-0.094-1 0.506zM22.025 4.55c-0.075 0.012-0.375 0.269-0.675 0.569-0.444 0.462-0.537 0.588-0.537 0.75 0 0.281 0.237 0.506 0.538 0.506 0.2 0 0.287-0.056 0.712-0.475 0.269-0.262 0.525-0.556 0.569-0.662 0.15-0.363-0.2-0.756-0.606-0.687zM23.513 4.6c-0.244 0.1-0.344 0.294-0.3 0.55 0.031 0.15 0.188 0.35 0.563 0.712 0.531 0.519 0.687 0.594 1.006 0.475 0.118-0.050 0.281-0.344 0.281-0.531 0-0.169-1.012-1.219-1.219-1.256-0.081-0.019-0.231 0.006-0.331 0.050zM29.587 4.881c-0.331 0.094-0.794 0.444-1.006 0.763-0.494 0.738-0.375 1.763 0.275 2.363 0.394 0.363 0.75 0.506 1.275 0.506 0.738 0 1.363-0.394 1.694-1.069 0.212-0.431 0.2-1.169-0.025-1.606-0.413-0.787-1.369-1.2-2.212-0.956zM30.569 6.019c0.25 0.169 0.413 0.556 0.344 0.825-0.025 0.094-0.138 0.269-0.256 0.387-0.181 0.181-0.25 0.206-0.519 0.206-0.381 0-0.662-0.2-0.756-0.55-0.206-0.725 0.563-1.288 1.188-0.869zM2.456 5.375c-0.288 0.119-0.344 0.312-0.319 1.094 0.019 0.681 0.031 0.738 0.169 0.85 0.225 0.181 0.588 0.156 0.75-0.044 0.112-0.144 0.131-0.256 0.131-0.875 0-0.644-0.012-0.719-0.138-0.862-0.162-0.181-0.394-0.244-0.594-0.163zM15.563 6.806c-1.588 1.206-2.788 3.112-3.169 5.050-0.125 0.663-0.144 2.225-0.025 2.825 0.125 0.644 0.369 1.431 0.606 1.938l0.219 0.475 0.2-0.394c0.481-0.944 1.169-1.631 2.081-2.081l0.5-0.25 0.281 0.106c0.95 0.369 1.85 1.231 2.369 2.256l0.181 0.363 0.219-0.475c0.825-1.775 0.931-4.013 0.275-5.856-0.444-1.269-1.132-2.338-2.1-3.275-0.5-0.481-1.119-0.987-1.213-0.987-0.012 0-0.2 0.138-0.425 0.306zM0.313 7.544c-0.413 0.212-0.413 0.7 0 0.913 0.181 0.094 0.337 0.112 0.868 0.094 0.619-0.019 0.65-0.031 0.794-0.194 0.194-0.225 0.194-0.487 0-0.712-0.143-0.163-0.175-0.175-0.794-0.194-0.531-0.019-0.687 0-0.868 0.094zM3.525 7.525c-0.45 0.2-0.406 0.819 0.069 0.975 0.144 0.050 0.456 0.068 0.819 0.050 0.506-0.019 0.606-0.044 0.744-0.175 0.1-0.094 0.163-0.227 0.163-0.375 0-0.151-0.065-0.287-0.169-0.381l-0-0c-0.143-0.131-0.219-0.15-0.794-0.163-0.444-0.013-0.694 0.006-0.831 0.069zM2.306 8.681c-0.144 0.112-0.15 0.156-0.15 0.906 0 0.725 0.013 0.794 0.138 0.925 0.206 0.206 0.556 0.188 0.744-0.037 0.138-0.156 0.15-0.225 0.15-0.875 0-0.619-0.019-0.731-0.131-0.875-0.163-0.2-0.525-0.225-0.75-0.044zM6.812 10.794c-0.588 0.031-1.175 0.15-1.213 0.238-0.012 0.044-0.062 0.419-0.106 0.837-0.131 1.25 0.075 2.694 0.556 3.887 0.212 0.538 0.106 0.506 1.294 0.338 1.269-0.181 2.869-0.044 3.994 0.344 0.206 0.069 0.381 0.113 0.394 0.1 0.019-0.013-0.044-0.256-0.131-0.538-0.338-1.056-0.456-2.419-0.331-3.725l0.044-0.507-0.45-0.206c-1.262-0.563-2.75-0.844-4.050-0.769zM24.219 10.788c-1.156 0.1-2.019 0.313-2.963 0.725l-0.581 0.256 0.038 0.288c0.181 1.419 0.062 2.806-0.344 4.056-0.075 0.219-0.118 0.406-0.106 0.425 0.019 0.012 0.194-0.031 0.4-0.1 1.125-0.387 2.725-0.525 3.994-0.344 1.188 0.169 1.082 0.2 1.294-0.338 0.469-1.175 0.681-2.625 0.556-3.825-0.1-1.031-0.075-0.975-0.556-1.050-0.494-0.075-1.381-0.125-1.731-0.094z"></path>
<path fill="#007e62" style="fill: var(--color4, #007e62)" d="M15.656 15.713c-0.988 0.65-1.619 1.712-1.744 2.918-0.075 0.682-0.019 0.825 0.388 1.075 0.856 0.531 1.644 1.506 1.95 2.413 0.088 0.243 0.181 0.444 0.212 0.444s0.256-0.206 0.5-0.456c0.806-0.819 1.1-1.625 1.112-3.012 0.006-0.731-0.012-0.862-0.169-1.338-0.294-0.869-0.831-1.569-1.556-2.037-0.188-0.119-0.35-0.219-0.363-0.212-0.013 0-0.156 0.094-0.331 0.206z"></path>
<path fill="#fff" style="fill: var(--color2, #fff)" d="M7.25 17.163c-1.469 0.237-3.056 1.006-4.156 2.012-0.4 0.369-0.994 1.031-1.231 1.375l-0.181 0.262 0.344 0.456c0.738 0.988 2.006 2 3.125 2.513 0.575 0.262 1.325 0.493 2.037 0.625 0.606 0.112 2.231 0.138 2.338 0.031 0.044-0.044 0.037-0.062-0.013-0.062-0.125 0-0.95-0.825-1.212-1.213-0.525-0.768-0.85-1.768-0.806-2.487 0.006-0.15 0.394-0.562 0.831-0.906 0.456-0.344 1.269-0.731 1.837-0.868 0.563-0.138 1.612-0.138 2.169 0 0.237 0.056 0.456 0.1 0.488 0.1 0.037 0 0.056-0.15 0.044-0.356l-0.019-0.363-0.688-0.344c-1.169-0.594-2.050-0.813-3.406-0.85-0.619-0.012-1.094 0.006-1.5 0.075zM22.406 17.131c-0.938 0.119-1.988 0.469-2.825 0.931l-0.456 0.256v0.338c0 0.188 0.025 0.344 0.056 0.344 0.038 0 0.25-0.044 0.488-0.1 0.606-0.15 1.662-0.138 2.275 0.025 0.775 0.206 1.531 0.625 2.143 1.2 0.406 0.375 0.469 0.531 0.4 1.019-0.156 1.15-0.819 2.313-1.744 3.044-0.169 0.131-0.281 0.256-0.244 0.281 0.125 0.081 1.75 0.037 2.312-0.063 2.031-0.35 3.944-1.512 5.138-3.112l0.363-0.494-0.181-0.262c-0.431-0.625-1.281-1.462-2.019-1.988-1.606-1.156-3.694-1.669-5.707-1.419z"></path>
<path fill="#007e62" style="fill: var(--color4, #007e62)" d="M10.713 19.869c-0.656 0.106-1.456 0.469-1.913 0.881l-0.262 0.231 0.081 0.356c0.269 1.219 1.35 2.325 2.675 2.756l0.331 0.106 0.294-0.262c0.731-0.638 1.644-1.025 2.725-1.144 0.425-0.044 0.669-0.1 0.669-0.144 0-0.169-0.519-1.081-0.781-1.381-0.837-0.95-2.588-1.594-3.819-1.4zM20.175 19.875c-0.169 0.025-0.475 0.112-0.694 0.181l-0.4 0.138-0.081 0.356c-0.244 1.1-0.975 2.2-1.906 2.869-0.188 0.131-0.188 0.138-0.062 0.237 0.256 0.206 1.019 0.538 1.469 0.631 0.825 0.175 1.931 0 2.875-0.456 0.938-0.45 1.769-1.494 2-2.506 0.094-0.4 0.056-0.456-0.569-0.863-0.75-0.487-1.838-0.731-2.631-0.588zM14.281 23.913c-0.919 0.2-1.644 0.681-2.35 1.569-0.662 0.831-0.931 1.581-0.931 2.581 0 0.619 0.050 0.881 0.262 1.419 0.119 0.313 0.138 0.325 0.406 0.369 0.337 0.050 0.931-0.006 1.394-0.138 0.825-0.237 1.75-0.925 2.15-1.6l0.162-0.281-0.125-0.288c-0.463-1.044-0.5-2.588-0.094-3.625 0.037-0.087 0.006-0.106-0.194-0.1-0.138 0-0.437 0.044-0.682 0.094zM16.069 24.55c-0.119 0.356-0.156 1.388-0.069 1.837 0.15 0.769 0.75 1.819 1.381 2.431 0.75 0.725 2.031 1.169 2.956 1.031 0.262-0.044 0.281-0.056 0.4-0.369 0.212-0.538 0.262-0.8 0.262-1.419 0-0.912-0.256-1.712-0.769-2.381l-0.212-0.269-0.806-0.012c-0.619-0.006-0.913-0.037-1.262-0.144-0.538-0.156-1.113-0.437-1.519-0.731l-0.288-0.206-0.075 0.231z"></path>
</symbol>
<symbol id="instagram" viewBox="0 0 32 32">
<path d="M16 2.462c-3.674 0-4.136 0.017-5.579 0.081-1.444 0.068-2.427 0.295-3.288 0.63-0.939 0.359-1.739 0.89-2.397 1.561l-0.001 0.001c-0.671 0.66-1.203 1.459-1.547 2.352l-0.015 0.045c-0.334 0.86-0.563 1.845-0.63 3.283-0.064 1.447-0.081 1.907-0.081 5.586 0 3.676 0.017 4.136 0.081 5.58 0.068 1.442 0.295 2.424 0.63 3.286 0.36 0.938 0.891 1.738 1.561 2.397l0.001 0.001c0.659 0.672 1.458 1.204 2.351 1.547l0.045 0.015c0.864 0.334 1.845 0.563 3.286 0.63 1.446 0.064 1.906 0.081 5.583 0.081s4.136-0.017 5.582-0.082c1.44-0.067 2.426-0.294 3.288-0.629 0.938-0.359 1.737-0.891 2.395-1.561l0.001-0.001c0.671-0.66 1.203-1.459 1.547-2.352l0.015-0.045c0.333-0.862 0.562-1.845 0.63-3.286 0.064-1.444 0.081-1.904 0.081-5.582s-0.017-4.138-0.082-5.583c-0.067-1.44-0.296-2.425-0.629-3.285-0.36-0.938-0.891-1.738-1.561-2.397l-0.001-0.001c-0.659-0.672-1.459-1.204-2.352-1.547l-0.045-0.015c-0.864-0.334-1.848-0.563-3.288-0.63-1.446-0.064-1.904-0.081-5.584-0.081h0.004zM14.786 4.902h1.216c3.614 0 4.042 0.012 5.469 0.078 1.32 0.059 2.038 0.28 2.515 0.465 0.61 0.23 1.13 0.575 1.556 1.013l0.001 0.001c0.439 0.426 0.784 0.947 1.003 1.529l0.009 0.029c0.186 0.475 0.406 1.192 0.465 2.512 0.066 1.427 0.080 1.856 0.080 5.469s-0.014 4.042-0.080 5.47c-0.059 1.32-0.28 2.036-0.465 2.513-0.229 0.61-0.575 1.13-1.013 1.554l-0.001 0.001c-0.426 0.439-0.946 0.783-1.528 1.002l-0.029 0.010c-0.474 0.186-1.191 0.406-2.513 0.467-1.426 0.064-1.854 0.080-5.47 0.080s-4.045-0.016-5.471-0.080c-1.32-0.061-2.036-0.281-2.513-0.467-0.61-0.229-1.13-0.574-1.556-1.011l-0.001-0.001c-0.44-0.426-0.786-0.946-1.006-1.528l-0.010-0.029c-0.184-0.476-0.406-1.193-0.465-2.513-0.064-1.427-0.078-1.855-0.078-5.472 0-3.614 0.014-4.041 0.078-5.467 0.061-1.32 0.28-2.038 0.466-2.515 0.23-0.611 0.575-1.13 1.013-1.556l0.001-0.001c0.426-0.439 0.946-0.784 1.528-1.002l0.029-0.010c0.477-0.186 1.193-0.406 2.513-0.467 1.249-0.058 1.733-0.074 4.256-0.076v0.003zM23.228 7.15c-0.897 0-1.625 0.727-1.625 1.625s0.727 1.625 1.625 1.625v0c0.897 0 1.625-0.727 1.625-1.625s-0.727-1.625-1.625-1.625v0zM16.002 9.048c-0.053-0.001-0.116-0.002-0.179-0.002-3.84 0-6.954 3.113-6.954 6.954 0 3.827 3.092 6.932 6.913 6.954h0.002c0.011 0 0.025 0 0.038 0 3.84 0 6.954-3.113 6.954-6.954 0-3.778-3.012-6.852-6.766-6.951l-0.009-0zM16.002 11.486c2.493 0 4.513 2.021 4.513 4.513s-2.021 4.513-4.513 4.513v0c-2.493 0-4.513-2.021-4.513-4.513s2.021-4.513 4.513-4.513v0z"></path>
</symbol>
<symbol id="logo" viewBox="0 0 69 32">
<path fill="#00654e" style="fill: var(--color1, #00654e)" d="M35.545 10.644c0.247 0 0.505 0.022 0.775 0.067 0.269 0.039 0.48 0.093 0.632 0.16 0.051 0.017 0.081 0.039 0.093 0.067 0.017 0.022 0.031 0.064 0.042 0.126l0.101 1.171c0 0.017-0.014 0.028-0.042 0.034s-0.045-0.003-0.051-0.025c-0.191-0.443-0.446-0.786-0.766-1.027s-0.691-0.362-1.112-0.362c-0.556 0-0.985 0.205-1.288 0.615s-0.455 0.96-0.455 1.651c0 0.517 0.081 0.988 0.244 1.415 0.168 0.427 0.401 0.766 0.699 1.019 0.273 0.23 0.629 0.371 1.018 0.371 0.003 0 0.007 0 0.010-0h-0.001c0.359 0 0.679-0.118 0.96-0.354 0.286-0.241 0.542-0.606 0.766-1.095 0.005-0.022 0.022-0.031 0.051-0.025 0.034 0.005 0.051 0.017 0.051 0.034l-0.126 1.145c-0.011 0.067-0.025 0.112-0.042 0.135-0.011 0.017-0.042 0.037-0.093 0.059-0.5 0.185-1.013 0.278-1.541 0.278-0.685 0-1.258-0.135-1.718-0.404-0.46-0.275-0.8-0.62-1.019-1.036-0.213-0.421-0.32-0.859-0.32-1.314 0-0.533 0.143-1.005 0.429-1.415 0.292-0.41 0.677-0.727 1.154-0.952 0.448-0.213 0.973-0.337 1.527-0.337 0.008 0 0.016 0 0.024 0h-0.001zM41.852 15.899c0.022 0 0.034 0.017 0.034 0.051s-0.011 0.051-0.034 0.051c-0.146 0-0.264-0.003-0.354-0.008l-0.488-0.008-0.505 0.008c-0.084 0.005-0.199 0.008-0.345 0.008-0.011 0-0.017-0.017-0.017-0.051s0.005-0.051 0.017-0.051c0.174 0 0.292-0.039 0.354-0.118 0.067-0.084 0.101-0.239 0.101-0.463v-1.213c0-0.303-0.056-0.528-0.168-0.674s-0.286-0.219-0.522-0.219c-0.135 0-0.275 0.028-0.421 0.084-0.143 0.057-0.265 0.134-0.372 0.228l0.001-0.001v1.794c0 0.224 0.031 0.379 0.093 0.463 0.067 0.079 0.188 0.118 0.362 0.118 0.022 0 0.034 0.017 0.034 0.051s-0.011 0.051-0.034 0.051c-0.146 0-0.264-0.003-0.354-0.008l-0.488-0.008-0.505 0.008c-0.084 0.005-0.199 0.008-0.345 0.008-0.011 0-0.017-0.017-0.017-0.051s0.005-0.051 0.017-0.051c0.174 0 0.292-0.039 0.354-0.118 0.067-0.084 0.101-0.239 0.101-0.463v-4.278c0-0.197-0.020-0.337-0.059-0.421-0.025-0.074-0.094-0.127-0.175-0.127-0.004 0-0.007 0-0.011 0l0.001-0c-0.079 0-0.185 0.031-0.32 0.093h-0.008c-0.017 0-0.034-0.014-0.051-0.042-0.011-0.034-0.011-0.053 0-0.059l1.229-0.581 0.042-0.008c0.028 0 0.056 0.014 0.084 0.042 0.034 0.022 0.051 0.045 0.051 0.067v3.335c0.399-0.46 0.825-0.691 1.28-0.691 0.303 0 0.542 0.098 0.716 0.295 0.18 0.191 0.269 0.443 0.269 0.758v1.617c0 0.224 0.031 0.379 0.093 0.463 0.067 0.079 0.188 0.118 0.362 0.118zM44.604 12.665c0.129 0 0.253 0.048 0.371 0.143 0.123 0.090 0.185 0.199 0.185 0.328 0 0.004 0 0.008 0 0.013 0 0.109-0.042 0.208-0.11 0.282l0-0c-0.073 0.073-0.168 0.109-0.286 0.109-0.084 0-0.155-0.017-0.211-0.051-0.051-0.034-0.104-0.084-0.16-0.152-0.039-0.046-0.083-0.085-0.132-0.117l-0.002-0.001c-0.032-0.026-0.074-0.042-0.12-0.042-0.002 0-0.005 0-0.007 0h0c-0.056 0-0.118 0.022-0.185 0.067-0.062 0.039-0.16 0.126-0.295 0.261v1.811c0 0.224 0.053 0.379 0.16 0.463 0.107 0.079 0.303 0.118 0.589 0.118 0.022 0 0.034 0.017 0.034 0.051s-0.011 0.051-0.034 0.051c-0.197 0-0.351-0.003-0.463-0.008l-0.682-0.008-0.497 0.008c-0.084 0.005-0.2 0.008-0.345 0.008-0.017 0-0.025-0.017-0.025-0.051s0.008-0.051 0.025-0.051c0.174 0 0.292-0.039 0.354-0.118 0.061-0.084 0.093-0.239 0.093-0.463v-1.583c0-0.174-0.023-0.3-0.067-0.379-0.030-0.075-0.102-0.126-0.186-0.126-0.003 0-0.005 0-0.008 0h0c-0.096 0-0.23 0.039-0.404 0.118h-0.017c-0.017 0-0.031-0.014-0.042-0.042-0.006-0.028-0.003-0.045 0.008-0.051l1.171-0.573c0.017-0.007 0.036-0.012 0.057-0.017l0.002-0c0.061 0 0.118 0.059 0.168 0.177 0.056 0.112 0.090 0.267 0.101 0.463 0.23-0.236 0.418-0.401 0.564-0.497 0.152-0.096 0.283-0.143 0.396-0.143zM45.69 16c-0.017 0-0.025-0.017-0.025-0.051s0.008-0.051 0.025-0.051c0.174 0 0.292-0.039 0.354-0.118 0.061-0.084 0.093-0.239 0.093-0.463v-1.507c0-0.191-0.020-0.328-0.059-0.413-0.030-0.075-0.102-0.126-0.186-0.126-0.003 0-0.005 0-0.008 0h0c-0.073 0-0.177 0.031-0.312 0.093h-0.008c-0.023 0-0.040-0.014-0.051-0.042-0.011-0.034-0.008-0.053 0.008-0.059l1.272-0.589 0.025-0.008c0.028 0 0.056 0.014 0.084 0.042s0.042 0.053 0.042 0.076v0.185c-0.011 0.224-0.017 0.5-0.017 0.825v1.524c0 0.224 0.031 0.379 0.093 0.463 0.067 0.079 0.188 0.118 0.362 0.118 0.017 0 0.025 0.017 0.025 0.051s-0.008 0.051-0.025 0.051c-0.146 0-0.261-0.003-0.345-0.008l-0.505-0.008-0.497 0.008c-0.084 0.005-0.2 0.008-0.345 0.008zM46.498 11.832c-0.163 0-0.289-0.045-0.379-0.135s-0.135-0.216-0.135-0.379c0-0.146 0.045-0.261 0.135-0.345 0.095-0.090 0.221-0.135 0.379-0.135s0.278 0.042 0.362 0.126 0.126 0.202 0.126 0.354c0 0.163-0.042 0.289-0.126 0.379s-0.205 0.135-0.362 0.135zM48.651 13.154c0 0.163 0.056 0.303 0.168 0.421 0.118 0.118 0.286 0.241 0.505 0.371 0.213 0.123 0.371 0.222 0.472 0.295 0.107 0.067 0.202 0.165 0.286 0.295 0.084 0.123 0.126 0.275 0.126 0.455 0 0.191-0.048 0.371-0.143 0.539s-0.239 0.306-0.429 0.413c-0.191 0.101-0.419 0.152-0.682 0.152-0.309 0-0.601-0.076-0.876-0.227-0.034-0.034-0.051-0.067-0.051-0.101l-0.017-0.834c0-0.017 0.014-0.025 0.042-0.025 0.034-0.005 0.053-0.003 0.059 0.008 0.090 0.283 0.244 0.524 0.446 0.715l0.001 0.001c0.208 0.197 0.418 0.295 0.632 0.295 0.118 0 0.211-0.037 0.278-0.109 0.073-0.073 0.109-0.18 0.109-0.32 0-0.208-0.059-0.371-0.177-0.488-0.118-0.123-0.292-0.25-0.522-0.379-0.197-0.107-0.345-0.194-0.446-0.261-0.109-0.076-0.199-0.172-0.267-0.282l-0.002-0.004c-0.079-0.123-0.118-0.275-0.118-0.455 0-0.331 0.118-0.573 0.354-0.724 0.236-0.157 0.525-0.236 0.867-0.236 0.129 0 0.244 0.008 0.345 0.025 0.107 0.017 0.224 0.051 0.354 0.101 0.051 0.017 0.076 0.048 0.076 0.093 0 0.14-0.003 0.25-0.008 0.328l-0.008 0.421c0 0.017-0.017 0.025-0.051 0.025s-0.051-0.008-0.051-0.025c0-0.107-0.045-0.222-0.135-0.345-0.095-0.133-0.213-0.243-0.349-0.325l-0.005-0.003c-0.123-0.083-0.275-0.133-0.438-0.135h-0c-0.23 0-0.345 0.109-0.345 0.328zM53.307 15.411c0.022 0 0.039 0.011 0.051 0.034 0.017 0.022 0.017 0.039 0 0.051-0.208 0.208-0.41 0.362-0.606 0.463-0.197 0.096-0.404 0.143-0.623 0.143-0.247 0-0.458-0.059-0.632-0.177s-0.261-0.317-0.261-0.598v-1.869c0-0.174-0.031-0.295-0.093-0.362s-0.174-0.101-0.337-0.101c-0.005 0-0.014-0.008-0.025-0.025-0.005-0.015-0.008-0.032-0.008-0.051s0.003-0.035 0.008-0.052l-0 0.001c0.005-0.017 0.014-0.025 0.025-0.025 0.286-0.011 0.517-0.073 0.691-0.185 0.18-0.112 0.317-0.283 0.413-0.514 0.011-0.022 0.034-0.034 0.067-0.034 0.039 0 0.059 0.011 0.059 0.034v0.674c0.325-0.005 0.691-0.031 1.095-0.076 0.011 0 0.022 0.022 0.034 0.067 0.017 0.039 0.025 0.084 0.025 0.135 0 0.056-0.011 0.112-0.034 0.168-0.017 0.051-0.037 0.073-0.059 0.067-0.316-0.073-0.681-0.118-1.055-0.126l-0.006-0v1.996c0 0.213 0.053 0.371 0.16 0.472 0.112 0.101 0.258 0.152 0.438 0.152 0.224 0 0.443-0.084 0.657-0.253l0.017-0.008zM59.884 15.899c0.022 0 0.034 0.017 0.034 0.051s-0.011 0.051-0.034 0.051c-0.146 0-0.261-0.003-0.345-0.008l-0.505-0.008-0.488 0.008c-0.090 0.005-0.208 0.008-0.354 0.008-0.017 0-0.025-0.017-0.025-0.051s0.008-0.051 0.025-0.051c0.174 0 0.292-0.039 0.354-0.118 0.067-0.084 0.101-0.239 0.101-0.463v-1.213c0-0.303-0.053-0.528-0.16-0.674-0.101-0.146-0.259-0.219-0.472-0.219-0.146 0-0.289 0.031-0.429 0.093s-0.261 0.146-0.362 0.253v1.76c0 0.224 0.031 0.379 0.093 0.463 0.067 0.079 0.188 0.118 0.362 0.118 0.022 0 0.034 0.017 0.034 0.051s-0.011 0.051-0.034 0.051c-0.146 0-0.261-0.003-0.345-0.008l-0.505-0.008-0.488 0.008c-0.090 0.005-0.208 0.008-0.354 0.008-0.017 0-0.025-0.017-0.025-0.051s0.008-0.051 0.025-0.051c0.174 0 0.292-0.039 0.354-0.118 0.067-0.084 0.101-0.239 0.101-0.463v-1.213c0-0.303-0.053-0.528-0.16-0.674-0.101-0.146-0.259-0.219-0.472-0.219-0.135 0-0.269 0.028-0.404 0.084-0.129 0.051-0.244 0.123-0.345 0.219v1.802c0 0.224 0.031 0.379 0.093 0.463 0.067 0.079 0.188 0.118 0.362 0.118 0.017 0 0.025 0.017 0.025 0.051s-0.008 0.051-0.025 0.051c-0.146 0-0.261-0.003-0.345-0.008l-0.505-0.008-0.497 0.008c-0.084 0.005-0.2 0.008-0.345 0.008-0.017 0-0.025-0.017-0.025-0.051s0.008-0.051 0.025-0.051c0.174 0 0.292-0.039 0.354-0.118 0.061-0.084 0.093-0.239 0.093-0.463v-1.583c0-0.174-0.023-0.3-0.067-0.379-0.030-0.075-0.102-0.126-0.186-0.126-0.003 0-0.005 0-0.008 0h0c-0.096 0-0.23 0.039-0.404 0.118h-0.017c-0.017 0-0.031-0.014-0.042-0.042-0.006-0.028-0.003-0.045 0.008-0.051l1.171-0.573c0.017-0.007 0.036-0.012 0.057-0.017l0.002-0c0.061 0 0.12 0.062 0.177 0.185 0.056 0.118 0.090 0.278 0.101 0.48 0.381-0.455 0.792-0.682 1.229-0.682 0.264 0 0.474 0.064 0.632 0.194s0.253 0.315 0.286 0.556c0.387-0.5 0.817-0.749 1.288-0.749 0.303 0 0.533 0.087 0.691 0.261 0.163 0.174 0.244 0.438 0.244 0.792v1.617c0 0.224 0.031 0.379 0.093 0.463 0.067 0.079 0.188 0.118 0.362 0.118zM63.651 15.545c0.022 0 0.036 0.014 0.042 0.042 0.011 0.022 0.005 0.039-0.017 0.051l-0.867 0.413c-0.023 0.011-0.050 0.017-0.078 0.017-0.002 0-0.004-0-0.006-0h0c-0.084 0-0.168-0.042-0.253-0.126-0.079-0.084-0.135-0.199-0.168-0.345l-0.387 0.211c-0.146 0.073-0.298 0.135-0.455 0.185-0.157 0.045-0.298 0.067-0.421 0.067-0.18 0-0.323-0.045-0.429-0.135-0.101-0.096-0.152-0.23-0.152-0.404 0-0.129 0.031-0.233 0.093-0.312 0.067-0.079 0.16-0.143 0.278-0.194 0.123-0.056 0.317-0.129 0.581-0.219l0.859-0.278v-0.665c0-0.337-0.034-0.584-0.101-0.741-0.067-0.163-0.177-0.244-0.328-0.244-0.004-0-0.009-0-0.015-0-0.124 0-0.235 0.059-0.305 0.151l-0.001 0.001c-0.079 0.101-0.126 0.267-0.143 0.497-0.034 0.315-0.2 0.472-0.497 0.472-0.264 0-0.396-0.115-0.396-0.345 0-0.152 0.095-0.303 0.286-0.455s0.421-0.275 0.691-0.371 0.505-0.143 0.707-0.143c0.264 0 0.477 0.079 0.64 0.236 0.168 0.157 0.253 0.387 0.253 0.691v1.491c0 0.163 0.028 0.289 0.084 0.379 0.052 0.082 0.143 0.135 0.245 0.135 0.003 0 0.005-0 0.008-0h-0c0.078 0 0.16-0.020 0.244-0.059h0.008zM62.278 15.461c-0.006-0.045-0.009-0.098-0.009-0.151 0-0.009 0-0.018 0-0.028l-0 0.001v-0.623l-0.463 0.168c-0.152 0.056-0.261 0.118-0.328 0.185-0.057 0.062-0.093 0.145-0.093 0.236 0 0.003 0 0.005 0 0.008v-0c0 0.118 0.034 0.211 0.101 0.278s0.152 0.101 0.253 0.101c0.123 0 0.267-0.039 0.429-0.118l0.109-0.059zM64.745 13.154c0 0.163 0.056 0.303 0.168 0.421 0.118 0.118 0.286 0.241 0.505 0.371 0.213 0.123 0.371 0.222 0.472 0.295 0.107 0.067 0.202 0.165 0.286 0.295 0.084 0.123 0.126 0.275 0.126 0.455 0 0.191-0.048 0.371-0.143 0.539s-0.239 0.306-0.429 0.413c-0.191 0.101-0.419 0.152-0.682 0.152-0.309 0-0.601-0.076-0.876-0.227-0.034-0.034-0.051-0.067-0.051-0.101l-0.017-0.834c0-0.017 0.014-0.025 0.042-0.025 0.034-0.005 0.053-0.003 0.059 0.008 0.090 0.283 0.244 0.524 0.446 0.715l0.001 0.001c0.208 0.197 0.418 0.295 0.632 0.295 0.118 0 0.211-0.037 0.278-0.109 0.073-0.073 0.109-0.18 0.109-0.32 0-0.208-0.059-0.371-0.177-0.488-0.118-0.123-0.292-0.25-0.522-0.379-0.197-0.107-0.345-0.194-0.446-0.261-0.109-0.076-0.199-0.172-0.267-0.282l-0.002-0.004c-0.079-0.123-0.118-0.275-0.118-0.455 0-0.331 0.118-0.573 0.354-0.724 0.236-0.157 0.525-0.236 0.867-0.236 0.129 0 0.244 0.008 0.345 0.025 0.107 0.017 0.224 0.051 0.354 0.101 0.051 0.017 0.076 0.048 0.076 0.093 0 0.14-0.003 0.25-0.008 0.328l-0.008 0.421c0 0.017-0.017 0.025-0.051 0.025s-0.051-0.008-0.051-0.025c0-0.107-0.045-0.222-0.135-0.345-0.095-0.133-0.213-0.243-0.349-0.325l-0.005-0.003c-0.123-0.083-0.275-0.133-0.438-0.135h-0c-0.23 0-0.345 0.109-0.345 0.328zM33.869 20.194c-0.668 0-1.148 0.435-1.44 1.305-0.005 0.017-0.022 0.025-0.051 0.025-0.028-0.005-0.042-0.017-0.042-0.034 0.022-0.224 0.048-0.514 0.076-0.867 0.028-0.359 0.042-0.629 0.042-0.808 0-0.028 0.014-0.042 0.042-0.042 0.034 0 0.051 0.014 0.051 0.042 0 0.123 0.16 0.185 0.48 0.185 0.483 0.017 1.047 0.025 1.693 0.025 0.331 0 0.682-0.005 1.053-0.017l0.573-0.008c0.213 0 0.368-0.014 0.463-0.042 0.101-0.028 0.165-0.084 0.194-0.168 0.005-0.022 0.022-0.034 0.051-0.034 0.034 0 0.051 0.011 0.051 0.034-0.017 0.168-0.037 0.438-0.059 0.808-0.017 0.371-0.025 0.668-0.025 0.893 0 0.017-0.014 0.025-0.042 0.025s-0.045-0.008-0.051-0.025c-0.084-0.432-0.241-0.755-0.472-0.968-0.23-0.219-0.514-0.328-0.851-0.328-0.163 0-0.272 0.037-0.328 0.109-0.051 0.067-0.076 0.199-0.076 0.396v3.882c0 0.174 0.017 0.3 0.051 0.379s0.098 0.132 0.194 0.16 0.247 0.042 0.455 0.042c0.017 0 0.025 0.017 0.025 0.051s-0.008 0.051-0.025 0.051c-0.202 0-0.362-0.003-0.48-0.008l-0.699-0.008-0.682 0.008c-0.118 0.005-0.281 0.008-0.488 0.008-0.017 0-0.025-0.017-0.025-0.051s0.008-0.051 0.025-0.051c0.202 0 0.351-0.014 0.446-0.042 0.101-0.028 0.168-0.081 0.202-0.16 0.039-0.084 0.059-0.211 0.059-0.379v-3.899c0-0.191-0.025-0.32-0.076-0.387s-0.155-0.101-0.312-0.101zM39.322 21.928c0.13 0 0.253 0.048 0.371 0.143 0.124 0.090 0.185 0.199 0.185 0.328 0 0.118-0.036 0.216-0.109 0.295-0.072 0.073-0.168 0.109-0.286 0.109-0.084 0-0.154-0.017-0.211-0.051-0.051-0.034-0.104-0.084-0.16-0.152-0.039-0.046-0.083-0.085-0.132-0.116l-0.002-0.001c-0.032-0.026-0.074-0.042-0.12-0.042-0.002 0-0.005 0-0.007 0h0c-0.056 0-0.118 0.022-0.185 0.067-0.061 0.039-0.16 0.126-0.295 0.261v1.811c0 0.224 0.054 0.379 0.16 0.463 0.107 0.079 0.303 0.118 0.589 0.118 0.023 0 0.034 0.017 0.034 0.051s-0.011 0.051-0.034 0.051c-0.196 0-0.35-0.003-0.463-0.008l-0.682-0.008-0.497 0.008c-0.084 0.005-0.199 0.008-0.345 0.008-0.017 0-0.025-0.017-0.025-0.051s0.008-0.051 0.025-0.051c0.174 0 0.292-0.039 0.354-0.118 0.062-0.084 0.093-0.239 0.093-0.463v-1.583c0-0.174-0.022-0.3-0.067-0.379-0.030-0.075-0.102-0.126-0.186-0.126-0.003 0-0.005 0-0.008 0h0c-0.095 0-0.23 0.039-0.404 0.118h-0.017c-0.017 0-0.030-0.014-0.042-0.042-0.005-0.028-0.003-0.045 0.008-0.051l1.171-0.573c0.017-0.007 0.036-0.012 0.057-0.016l0.002-0c0.062 0 0.118 0.059 0.168 0.177 0.056 0.112 0.090 0.267 0.101 0.463 0.231-0.236 0.419-0.401 0.564-0.497 0.152-0.096 0.284-0.143 0.396-0.143zM43.248 24.707c0.011 0 0.022 0.011 0.034 0.034 0.017 0.022 0.019 0.039 0.008 0.051-0.208 0.202-0.419 0.348-0.632 0.438s-0.446 0.135-0.699 0.135c-0.354 0-0.66-0.073-0.918-0.219-0.249-0.143-0.449-0.346-0.585-0.59l-0.004-0.008c-0.127-0.232-0.202-0.508-0.202-0.802 0-0.002 0-0.004 0-0.007v0c0-0.325 0.084-0.626 0.253-0.901 0.168-0.281 0.398-0.5 0.691-0.657 0.292-0.163 0.617-0.244 0.977-0.244 0.348 0 0.615 0.076 0.8 0.227 0.185 0.146 0.278 0.348 0.278 0.606 0 0.163-0.031 0.244-0.093 0.244h-0.514l-1.516 0.017c-0.017 0.107-0.025 0.224-0.025 0.354 0 0.483 0.112 0.864 0.337 1.145 0.23 0.281 0.544 0.421 0.943 0.421 0.14 0 0.286-0.020 0.438-0.059s0.289-0.098 0.413-0.177l0.017-0.008zM41.859 22.105c-0.168 0-0.315 0.067-0.438 0.202s-0.213 0.32-0.269 0.556l1.196-0.025c-0.017-0.488-0.18-0.733-0.488-0.733zM46.803 24.707c0.011 0 0.022 0.011 0.034 0.034 0.017 0.022 0.020 0.039 0.008 0.051-0.208 0.202-0.418 0.348-0.632 0.438s-0.446 0.135-0.699 0.135c-0.354 0-0.66-0.073-0.918-0.219-0.249-0.143-0.449-0.346-0.585-0.59l-0.004-0.008c-0.127-0.232-0.202-0.508-0.202-0.802 0-0.002 0-0.004 0-0.007v0c0-0.325 0.084-0.626 0.253-0.901 0.168-0.281 0.399-0.5 0.691-0.657 0.292-0.163 0.618-0.244 0.977-0.244 0.348 0 0.615 0.076 0.8 0.227 0.185 0.146 0.278 0.348 0.278 0.606 0 0.163-0.031 0.244-0.093 0.244h-0.514l-1.516 0.017c-0.017 0.107-0.025 0.224-0.025 0.354 0 0.483 0.112 0.864 0.337 1.145 0.23 0.281 0.544 0.421 0.943 0.421 0.14 0 0.286-0.020 0.438-0.059s0.289-0.098 0.413-0.177l0.017-0.008zM45.413 22.105c-0.168 0-0.315 0.067-0.438 0.202s-0.213 0.32-0.269 0.556l1.196-0.025c-0.017-0.488-0.18-0.733-0.488-0.733zM48.133 22.417c0 0.163 0.056 0.303 0.168 0.421 0.118 0.118 0.286 0.241 0.505 0.371 0.213 0.123 0.371 0.222 0.472 0.295 0.107 0.067 0.202 0.165 0.286 0.295 0.084 0.123 0.126 0.275 0.126 0.455 0 0.191-0.048 0.371-0.143 0.539s-0.238 0.306-0.429 0.413c-0.191 0.101-0.418 0.152-0.682 0.152-0.309 0-0.6-0.076-0.876-0.227-0.034-0.034-0.051-0.067-0.051-0.101l-0.017-0.834c0-0.017 0.014-0.025 0.042-0.025 0.034-0.005 0.053-0.003 0.059 0.008 0.090 0.283 0.244 0.524 0.446 0.715l0.001 0.001c0.208 0.197 0.419 0.295 0.632 0.295 0.118 0 0.211-0.037 0.278-0.109 0.073-0.073 0.109-0.18 0.109-0.32 0-0.208-0.059-0.371-0.177-0.488-0.118-0.123-0.292-0.25-0.522-0.379-0.196-0.107-0.345-0.194-0.446-0.261-0.109-0.076-0.199-0.172-0.267-0.282l-0.002-0.004c-0.078-0.123-0.118-0.275-0.118-0.455 0-0.331 0.118-0.573 0.354-0.724 0.236-0.157 0.525-0.236 0.867-0.236 0.129 0 0.244 0.008 0.345 0.025 0.107 0.017 0.225 0.051 0.354 0.101 0.051 0.017 0.076 0.048 0.076 0.093 0 0.14-0.003 0.25-0.008 0.328l-0.008 0.421c0 0.017-0.017 0.025-0.051 0.025s-0.051-0.008-0.051-0.025c0-0.107-0.045-0.222-0.135-0.345-0.095-0.133-0.212-0.243-0.349-0.326l-0.005-0.003c-0.123-0.083-0.275-0.133-0.438-0.135h-0c-0.23 0-0.345 0.109-0.345 0.328z"></path>
<path fill="#3dad52" style="fill: var(--color5, #3dad52)" d="M15.219-0.031h0.562c-0.273 0.437-0.866 1.542-1.443 2.657l-0.338 0.718c-0.484 0.934-0.99 2.088-1.428 3.276l-0.072 0.224c-0.287 0.702-0.453 1.516-0.453 2.369 0 0.156 0.006 0.311 0.016 0.464l-0.001-0.021c0.062 0.354 0.26 0.593 0.594 0.719 2.711 0.222 5.419 0.191 8.125-0.094 0.425 0.505 0.896 1.095 1.353 1.696l0.085 0.117c-0.029 0.075-0.092 0.116-0.188 0.125-2.061 0.341-4.435 0.535-6.855 0.535-0.622 0-1.242-0.013-1.857-0.038l0.088 0.003c-0.992 2.244-1.992 4.484-3 6.719 0.19 0.064 0.41 0.101 0.638 0.101 0.062 0 0.123-0.003 0.183-0.008l-0.008 0.001c0.47-1.598 0.885-2.803 1.341-3.987l-0.123 0.362c0.139 0.401 0.452 1.682 0.745 2.972l0.161 0.841c3.266 0.145 6.516-0.001 9.75-0.437 0.553 0.736 1.065 1.367 1.598 1.979l-0.036-0.042c-1.552 0.344-3.393 0.6-5.273 0.714l-0.102 0.005c-2.563 0.132-5.126 0.122-7.688-0.032l-0.25 0.063c-0.838 0.929-1.541 2.002-2.063 3.173l-0.031 0.077c-0.395 0.83-0.374 1.643 0.062 2.438 0.337 0.375 0.771 0.657 1.261 0.807l0.020 0.005c-1.519-0.103-2.892-0.27-4.241-0.504l0.241 0.035c-1.052-0.055-1.854-0.523-2.406-1.406-0.323-0.846-0.177-1.596 0.438-2.25 1.413-1.651 2.82-3.307 4.219-4.968-0.807-0.166-1.416-0.317-2.017-0.487l0.204 0.049c-1.353-0.754-1.551-1.743-0.594-2.968 1.225-1.417 2.769-3.258 4.291-5.117l0.428-0.539c-0.393-0.091-0.903-0.179-1.421-0.242l-0.079-0.008c-1.107-0.187-1.575-0.822-1.406-1.906 1.283-1.53 3.227-3.93 5.149-6.348l0.788-1.027c0.272-0.346 0.618-0.622 1.015-0.806l0.017-0.007z"></path>
<path fill="#4cc067" style="fill: var(--color6, #4cc067)" opacity="0.993" d="M15.781-0.031h0.938c0.32 0.12 0.601 0.308 0.844 0.563 2.417 3.093 4.423 5.555 6.469 7.98l-0.344-0.418c0.258 0.891-0.045 1.506-0.907 1.844-0.659 0.158-1.326 0.272-2 0.344-2.706 0.285-5.414 0.316-8.125 0.094-0.334-0.125-0.532-0.365-0.594-0.719-0.010-0.133-0.015-0.288-0.015-0.444 0-0.853 0.166-1.667 0.468-2.411l-0.015 0.043c0.511-1.412 1.016-2.567 1.585-3.684l-0.085 0.184c0.915-1.833 1.508-2.938 2.117-4.033l-0.336 0.658z"></path>
<path fill="#4cc067" style="fill: var(--color6, #4cc067)" opacity="0.995" d="M22.219 12.094c-1.851-2.256-0.655-0.853 0.538 0.551l3.118 3.761c0.473 0.952 0.275 1.733-0.594 2.344-0.638 0.321-1.388 0.516-2.182 0.531l-0.005 0c-2.197 0.313-4.735 0.492-7.315 0.492-0.857 0-1.708-0.020-2.555-0.059l0.12 0.004c-0.454-2.131-0.767-3.413-1.1-4.686l0.194 0.874c-0.334 0.822-0.749 2.027-1.121 3.25l-0.098 0.375c-0.052 0.005-0.113 0.007-0.175 0.007-0.228 0-0.447-0.037-0.652-0.106l0.014 0.004c1.008-2.235 2.008-4.475 3-6.719 2.89 0.115 5.765-0.051 8.625-0.5 0.096-0.008 0.158-0.051 0.188-0.125z"></path>
<path fill="#4dc067" style="fill: var(--color7, #4dc067)" opacity="0.992" d="M24.656 21.219c0.976 1.175 1.966 2.341 2.968 3.5 0.601 1.182 0.341 2.13-0.781 2.844-0.555 0.263-1.2 0.451-1.877 0.529l-0.029 0.003c-0.699-0.846-1.498-1.863-2.275-2.898l-0.163-0.227c-0.031 1.145-0.041 2.291-0.031 3.437-1.206 0.118-2.414 0.201-3.625 0.25-1.917 0.075-3.834 0.075-5.749 0-0.899-0.017-1.765-0.084-2.615-0.201l0.114 0.013c-0.511-0.156-0.944-0.438-1.279-0.81l-0.002-0.003c-0.436-0.795-0.457-1.607-0.062-2.437 0.553-1.248 1.255-2.321 2.103-3.26l-0.010 0.011 0.25-0.063c2.562 0.153 5.124 0.164 7.688 0.032 1.982-0.119 3.823-0.375 5.616-0.762l-0.24 0.044z"></path>
<path fill="#7f4a26" style="fill: var(--color8, #7f4a26)" opacity="0.98" d="M13.094 28.656c1.916 0.075 3.833 0.075 5.75 0 0.094 0.368 0.157 0.742 0.187 1.125-1.239 0.062-2.489 0.083-3.75 0.062v2.062c-0.947-0.096-1.815-0.339-2.613-0.708l0.050 0.021-0.062-0.125c0.152-0.812 0.298-1.624 0.437-2.438z"></path>
<path fill="#925c34" style="fill: var(--color9, #925c34)" d="M19.032 29.781c0.095 0.406 0.179 0.822 0.25 1.251l-0.062 0.187c-0.973 0.45-2.112 0.712-3.312 0.712-0.22 0-0.439-0.009-0.654-0.026l0.028 0.002v-2.062c1.261 0.021 2.511 0 3.75-0.062z"></path>
</symbol>
<symbol id="mastercard" viewBox="0 0 40 32">
<path fill="#000" style="fill: var(--color10, #000)" d="M7.25 31.93v-2.125c0-0.811-0.48-1.344-1.305-1.344-0.413 0-0.861 0.141-1.169 0.602-0.24-0.389-0.585-0.602-1.101-0.602-0.013-0.001-0.028-0.001-0.044-0.001-0.382 0-0.719 0.195-0.915 0.492l-0.003 0.004v-0.425h-0.72v3.399h0.72v-1.877c0-0.602 0.309-0.887 0.789-0.887s0.72 0.318 0.72 0.887v1.877h0.72v-1.877c0-0.602 0.345-0.887 0.79-0.887 0.48 0 0.72 0.318 0.72 0.887v1.877h0.798zM17.938 28.531h-1.169v-1.026h-0.72v1.026h-0.653v0.673h0.651v1.559c0 0.778 0.309 1.237 1.134 1.237 0.309 0 0.653-0.107 0.893-0.247l-0.208-0.64c-0.172 0.111-0.381 0.177-0.607 0.177-0.005 0-0.010-0-0.015-0h0.001c-0.344 0-0.48-0.214-0.48-0.565v-1.521h1.169v-0.672h0.003zM24.055 28.458c-0.004-0-0.009-0-0.014-0-0.361 0-0.677 0.197-0.844 0.49l-0.003 0.005v-0.425h-0.72v3.398h0.72v-1.913c0-0.565 0.24-0.887 0.689-0.887 0.136 0 0.309 0.037 0.448 0.070l0.208-0.709c-0.144-0.029-0.349-0.029-0.485-0.029zM14.811 28.813c-0.343-0.248-0.824-0.354-1.341-0.354-0.825 0-1.374 0.424-1.374 1.097 0 0.565 0.413 0.886 1.134 0.989l0.344 0.038c0.377 0.070 0.584 0.177 0.584 0.354 0 0.248-0.275 0.425-0.757 0.425-0.002 0-0.005 0-0.008 0-0.411 0-0.79-0.133-1.098-0.358l0.005 0.004-0.344 0.565c0.377 0.285 0.893 0.424 1.409 0.424 0.96 0 1.513-0.462 1.513-1.097 0-0.601-0.448-0.919-1.133-1.026l-0.345-0.037c-0.309-0.038-0.549-0.107-0.549-0.318 0-0.248 0.24-0.389 0.621-0.389 0.413 0 0.825 0.178 1.033 0.286l0.304-0.602zM33.983 28.458c-0.004-0-0.009-0-0.014-0-0.361 0-0.677 0.197-0.844 0.49l-0.002 0.005v-0.425h-0.72v3.398h0.72v-1.913c0-0.565 0.24-0.887 0.689-0.887 0.136 0 0.309 0.037 0.448 0.070l0.208-0.701c-0.139-0.037-0.344-0.037-0.485-0.037zM24.776 30.231c0 1.026 0.688 1.769 1.753 1.769 0.48 0 0.825-0.107 1.169-0.389l-0.344-0.601c-0.277 0.215-0.549 0.318-0.861 0.318-0.585 0-0.998-0.425-0.998-1.097 0-0.64 0.413-1.063 0.997-1.097 0.309 0 0.585 0.107 0.862 0.318l0.343-0.602c-0.343-0.285-0.688-0.387-1.168-0.387-1.065-0.003-1.753 0.743-1.753 1.769zM31.441 30.231v-1.699h-0.72v0.425c-0.24-0.318-0.585-0.495-1.033-0.495-0.929 0-1.649 0.743-1.649 1.769s0.72 1.769 1.649 1.769c0.48 0 0.824-0.177 1.033-0.495v0.425h0.72v-1.699zM28.795 30.231c0-0.602 0.376-1.097 0.997-1.097 0.584 0 0.997 0.462 0.997 1.097 0 0.602-0.411 1.097-0.997 1.097-0.617-0.038-0.997-0.499-0.997-1.097zM20.171 28.457c-0.961 0-1.65 0.71-1.65 1.77 0 1.063 0.689 1.768 1.686 1.768 0.48 0 0.96-0.139 1.342-0.462l-0.345-0.531c-0.275 0.214-0.621 0.354-0.96 0.354-0.449 0-0.893-0.215-0.997-0.811h2.438v-0.286c0.032-1.093-0.589-1.801-1.513-1.801zM20.171 29.097c0.448 0 0.757 0.285 0.824 0.811h-1.715c0.069-0.457 0.377-0.811 0.894-0.811zM38.073 30.231v-3.042h-0.72v1.769c-0.24-0.318-0.585-0.495-1.033-0.495-0.929 0-1.649 0.743-1.649 1.769s0.721 1.768 1.649 1.768c0.48 0 0.824-0.177 1.033-0.495v0.425h0.72v-1.699zM35.427 30.231c0-0.602 0.377-1.097 0.997-1.097 0.584 0 0.997 0.462 0.997 1.097 0 0.602-0.411 1.097-0.997 1.097-0.621-0.038-0.997-0.499-0.997-1.097zM11.304 30.231v-1.699h-0.72v0.425c-0.24-0.318-0.585-0.495-1.033-0.495-0.929 0-1.649 0.743-1.649 1.769s0.721 1.769 1.65 1.769c0.48 0 0.824-0.177 1.032-0.495v0.425h0.72v-1.699zM8.626 30.231c0-0.602 0.376-1.097 0.997-1.097 0.584 0 0.997 0.462 0.997 1.097 0 0.602-0.411 1.097-0.997 1.097-0.621-0.038-0.997-0.499-0.997-1.097z"></path>
<path fill="#ff5a00" style="fill: var(--color11, #ff5a00)" d="M25.397 2.726h-10.825v20.033h10.825v-20.033z"></path>
<path fill="#eb001b" style="fill: var(--color12, #eb001b)" d="M15.291 12.743c0-4.071 1.858-7.683 4.709-10.017-2.097-1.699-4.743-2.726-7.63-2.726-6.839 0-12.37 5.699-12.37 12.743 0 7.042 5.531 12.742 12.37 12.742 2.886 0 5.531-1.026 7.63-2.726-2.855-2.302-4.709-5.946-4.709-10.017z"></path>
<path fill="#f79e1b" style="fill: var(--color13, #f79e1b)" d="M40 12.743c0 7.042-5.531 12.742-12.37 12.742-2.886 0-5.531-1.026-7.63-2.726 2.887-2.338 4.709-5.946 4.709-10.017 0-4.069-1.858-7.682-4.709-10.016 2.059-1.695 4.722-2.723 7.626-2.726h0.001c6.841 0 12.374 5.737 12.374 12.743z"></path>
</symbol>
<symbol id="menu" viewBox="0 0 32 32">
<path d="M4 24h24v-2.667h-24v2.667zM4 17.333h24v-2.667h-24v2.667zM4 8v2.667h24v-2.667h-24z"></path>
</symbol>
<symbol id="telegram" viewBox="0 0 32 32">
<path  d="M26.070 3.996c-0.321 0.023-0.636 0.099-0.933 0.223h-0.004c-0.285 0.113-1.64 0.683-3.7 1.547l-7.382 3.109c-5.297 2.23-10.504 4.426-10.504 4.426l0.062-0.024c0 0-0.359 0.118-0.734 0.375-0.232 0.147-0.431 0.34-0.586 0.567-0.184 0.27-0.332 0.683-0.277 1.11 0.090 0.722 0.558 1.155 0.894 1.394 0.34 0.242 0.664 0.355 0.664 0.355h0.008l4.883 1.645c0.219 0.703 1.488 4.875 1.793 5.836 0.18 0.574 0.355 0.933 0.574 1.207 0.106 0.14 0.23 0.257 0.379 0.351 0.077 0.045 0.16 0.081 0.246 0.106l-0.050-0.012c0.015 0.004 0.027 0.016 0.038 0.020 0.040 0.011 0.067 0.015 0.118 0.023 0.773 0.234 1.394-0.246 1.394-0.246l0.035-0.028 2.883-2.625 4.832 3.707 0.11 0.047c1.007 0.442 2.027 0.196 2.566-0.238 0.543-0.437 0.754-0.996 0.754-0.996l0.035-0.090 3.734-19.129c0.106-0.472 0.133-0.914 0.016-1.343-0.121-0.434-0.399-0.808-0.781-1.047-0.321-0.195-0.692-0.289-1.067-0.27zM25.969 6.046c-0.004 0.063 0.008 0.056-0.020 0.177v0.011l-3.699 18.93c-0.016 0.027-0.043 0.086-0.117 0.145-0.078 0.062-0.14 0.101-0.465-0.028l-5.91-4.531-3.57 3.254 0.75-4.79 9.656-9c0.398-0.37 0.265-0.448 0.265-0.448 0.028-0.454-0.601-0.133-0.601-0.133l-12.176 7.543-0.004-0.020-5.851-1.972c0.010-0.003 0.020-0.007 0.030-0.012l0.032-0.016 0.031-0.011c0 0 5.211-2.196 10.508-4.426 2.652-1.117 5.324-2.242 7.379-3.11 2.055-0.863 3.574-1.496 3.66-1.53 0.082-0.032 0.043-0.032 0.102-0.032v-0.001z"></path>
</symbol>
<symbol id="tree" viewBox="0 0 32 32">
<path fill="#da0f0f" style="fill: var(--color14, #da0f0f)" d="M15.481 2.531l-0.481 0.969h-1.969l0.737 0.738 0.738 0.744-0.381 0.963c-0.212 0.531-0.444 1.1-0.506 1.262-0.069 0.169-0.1 0.288-0.075 0.275 2.946-1.683 3.357-1.933 3.766-2.184l-2.51 1.428 1.2-0.719 1.206 0.719c0.656 0.4 1.219 0.737 1.25 0.756 0.025 0.012-0.006-0.106-0.075-0.275-0.062-0.162-0.294-0.731-0.506-1.262l-0.381-0.963 0.738-0.744 0.737-0.738h-1.969l-0.481-0.969c-0.269-0.531-0.5-0.969-0.519-0.969s-0.25 0.437-0.519 0.969z"></path>
<path fill="#fff" style="fill: var(--color2, #fff)" d="M15.812 7.075c-0.894 1.625-2.506 3.175-4.206 4.056l-0.75 0.388 0.3 0.119c1.925 0.756 4.644 1.031 6.888 0.706 1.037-0.156 3.087-0.706 3.081-0.831 0-0.025-0.194-0.131-0.425-0.231-1.738-0.775-3.556-2.469-4.513-4.206-0.081-0.144-0.169-0.262-0.188-0.262s-0.106 0.119-0.188 0.262zM12.406 13.819c-1.169 1.181-2.75 2.387-3.919 2.994-0.237 0.119-0.425 0.237-0.425 0.262 0 0.056 0.925 0.606 1.563 0.925 1.244 0.625 2.844 1.125 4.313 1.356 1 0.15 3.125 0.15 4.125 0 1.488-0.237 3.056-0.725 4.319-1.356 0.65-0.325 1.556-0.869 1.556-0.931 0-0.025-0.106-0.094-0.231-0.156-0.65-0.306-2.037-1.238-2.8-1.869-0.206-0.175-0.725-0.662-1.156-1.082-0.769-0.756-0.788-0.768-1-0.725l-0.219 0.050-0.019 0.662-0.019 0.656 0.194 0.081c0.425 0.175 0.813 0.806 0.813 1.325 0 0.6-0.507 1.275-1.069 1.425-0.325 0.088-0.844 0.050-1.1-0.081-0.462-0.244-0.831-0.837-0.831-1.344 0-0.519 0.387-1.15 0.812-1.325l0.188-0.075v-1.144h-1.45c-1.081-0.006-1.637-0.031-2.169-0.119-0.388-0.056-0.738-0.125-0.781-0.138-0.038-0.012-0.35 0.256-0.694 0.606z"></path>
<path fill="#fff" style="fill: var(--color2, #fff)" d="M9.563 19.731c-0.969 0.844-2.338 1.812-3.556 2.519-0.45 0.256-0.556 0.344-0.5 0.413 0.037 0.044 0.325 0.275 0.637 0.512 5.862 4.419 13.825 4.425 19.694 0.019 0.319-0.238 0.612-0.475 0.65-0.525 0.056-0.069-0.087-0.181-0.787-0.594-1.056-0.631-2.231-1.469-3.106-2.206l-0.662-0.563-0.482 0.188c-1.219 0.469-2.763 0.819-4.169 0.95-0.775 0.069-2.388 0.044-3.012-0.044l-0.269-0.044v1.256l0.188 0.075c0.425 0.175 0.812 0.806 0.812 1.325 0 0.6-0.506 1.275-1.069 1.425-0.325 0.088-0.844 0.050-1.1-0.081-0.463-0.244-0.831-0.837-0.831-1.344 0-0.519 0.388-1.15 0.813-1.325l0.187-0.075v-1.4l-0.7-0.175c-0.64-0.169-1.13-0.323-1.611-0.494l0.142 0.044c-0.419-0.15-0.769-0.275-0.781-0.269-0.013 0-0.231 0.188-0.488 0.413z"></path>
<path fill="#fff" style="fill: var(--color2, #fff)" d="M14.344 27.656c-0.025 0.175-0.281 2.694-0.281 2.8 0 0.025 0.875 0.044 1.938 0.044 1.069 0 1.938-0.019 1.938-0.044 0-0.106-0.256-2.625-0.282-2.8l-0.031-0.188h-3.25l-0.031 0.188z"></path>
</symbol>
<symbol id="truck" viewBox="0 0 32 32">
<path fill="#fff" style="fill: var(--color2, #fff)" d="M5.525 4.806c-0.619 0.15-1.244 0.662-1.513 1.244-0.138 0.3-0.169 0.463-0.188 1.025l-0.025 0.675h-1.637c-1.425 0-1.656 0.012-1.85 0.112-0.356 0.175-0.413 0.606-0.113 0.888 0.131 0.125 0.206 0.125 3.581 0.125 2.363 0 3.513 0.019 3.65 0.069 0.2 0.069 0.381 0.325 0.381 0.55 0 0.069-0.069 0.206-0.163 0.313l-0.156 0.187-1.681 0.019c-1.656 0.019-1.687 0.019-1.825 0.162-0.119 0.112-0.15 0.231-0.175 0.625l-0.031 0.481-0.706 0.031c-0.65 0.031-0.719 0.044-0.831 0.181-0.131 0.163-0.156 0.45-0.050 0.644 0.15 0.281 0.337 0.3 2.894 0.3h2.4l0.162 0.194c0.188 0.219 0.2 0.363 0.069 0.612-0.144 0.287-0.35 0.319-2.044 0.319h-1.557l-0.15 0.156c-0.15 0.144-0.156 0.181-0.156 1v0.856l0.363 0.363h1.731c2.081 0 2.156 0.019 2.156 0.594 0 0.156-0.050 0.25-0.194 0.369l-0.194 0.162h-1.713c-2.144 0-2.144 0-2.15 0.794v0.45l-3.512 0.037-0.15 0.175c-0.206 0.244-0.194 0.506 0.031 0.738l0.181 0.181h3.45v4.675l0.194 0.162c0.156 0.131 0.256 0.163 0.531 0.163 0.625 0 0.837-0.237 0.837-0.931 0-1.037 0.763-2.456 1.7-3.163 1.375-1.037 3.125-1.25 4.606-0.556 1.531 0.719 2.444 1.987 2.631 3.662 0.081 0.744 0.1 0.781 0.312 0.894 0.156 0.081 0.688 0.094 3.531 0.094h3.356l0.181-0.181 0.181-0.188-0.012-8.8-0.019-8.8-0.175-0.375c-0.294-0.625-0.788-1.056-1.419-1.244-0.3-0.087-1.125-0.1-7.431-0.094-3.906 0.006-7.188 0.025-7.294 0.050zM11.025 11.506c0.188 0.219 0.2 0.363 0.069 0.619-0.125 0.244-0.444 0.331-1.056 0.3-0.419-0.019-0.494-0.044-0.644-0.188-0.231-0.231-0.225-0.581 0.012-0.781 0.15-0.131 0.225-0.144 0.812-0.144 0.644 0 0.644 0 0.806 0.194zM7.194 18.494c0.244 0.25 0.244 0.513 0 0.763l-0.181 0.181h-1c-0.9 0-1.012-0.012-1.156-0.125-0.194-0.156-0.262-0.406-0.163-0.638 0.125-0.312 0.3-0.356 1.356-0.362h0.963l0.181 0.181zM23.181 12.806l-0.181 0.181v7.131l0.15 0.175c0.219 0.256 0.538 0.237 0.95-0.062 2.45-1.769 5.906-0.644 6.906 2.25 0.069 0.2 0.156 0.644 0.194 0.981 0.075 0.669 0.169 0.85 0.45 0.85 0.344 0 0.35-0.050 0.35-2.825 0-1.531-0.025-2.606-0.062-2.706-0.125-0.331-0.25-0.344-3.213-0.344-2.587 0-2.737-0.006-3.062-0.125-0.65-0.244-1.137-0.763-1.35-1.431-0.113-0.356-0.125-0.569-0.125-2.144v-1.75l-0.181-0.181c-0.138-0.131-0.244-0.181-0.412-0.181s-0.275 0.050-0.413 0.181z"></path>
<path fill="#fff" style="fill: var(--color2, #fff)" d="M25.5 12.8l-0.188 0.188v1.713c0 1.525 0.012 1.731 0.118 1.956 0.131 0.287 0.338 0.494 0.588 0.588 0.112 0.044 1.044 0.069 2.637 0.069h2.456l0.162-0.194c0.088-0.106 0.163-0.256 0.163-0.344 0-0.144-0.687-1.206-1.763-2.725-0.469-0.669-0.881-1.012-1.481-1.25-0.3-0.119-0.5-0.138-1.425-0.163l-1.081-0.025-0.187 0.188zM0.919 14.938c-0.194 0.156-0.262 0.406-0.163 0.637 0.113 0.275 0.35 0.363 0.963 0.363 0.744 0 0.963-0.131 0.969-0.581 0-0.169-0.044-0.281-0.156-0.387-0.138-0.144-0.194-0.156-0.8-0.156-0.556 0-0.675 0.019-0.812 0.125z"></path>
<path fill="#f88506" style="fill: var(--color15, #f88506)" d="M9.156 20.575c-0.575 0.106-1.206 0.462-1.687 0.95-0.688 0.694-0.969 1.381-0.969 2.35 0 0.975 0.287 1.669 0.962 2.35 1.075 1.075 2.581 1.325 3.925 0.644 0.444-0.225 1.025-0.75 1.306-1.188 0.681-1.062 0.681-2.55-0.006-3.619-0.294-0.456-0.881-0.969-1.394-1.212-0.687-0.331-1.388-0.419-2.138-0.275zM26.031 20.575c-0.556 0.1-1.213 0.469-1.663 0.918-0.669 0.669-0.994 1.444-0.994 2.381s0.325 1.713 0.994 2.381c0.831 0.831 1.988 1.169 3.119 0.9 0.838-0.2 1.594-0.744 2.088-1.494 0.681-1.044 0.681-2.525 0-3.575-0.775-1.187-2.15-1.781-3.544-1.512z"></path>
</symbol>
<symbol id="visa" viewBox="0 0 97 32">
<path fill="#00579f" style="fill: var(--color16, #00579f)" d="M42.23 31.539h-7.894l4.937-30.977h7.895l-4.938 30.977zM70.848 1.319c-1.556-0.627-4.026-1.319-7.081-1.319-7.796 0-13.286 4.218-13.319 10.249-0.064 4.448 3.93 6.919 6.919 8.403 3.055 1.516 4.092 2.506 4.092 3.857-0.031 2.074-2.467 3.031-4.742 3.031-3.151 0-4.839-0.495-7.407-1.648l-1.039-0.495-1.105 6.953c1.852 0.857 5.264 1.616 8.804 1.649 8.284 0 13.677-4.153 13.741-10.579 0.032-3.527-2.079-6.228-6.627-8.436-2.761-1.417-4.451-2.374-4.451-3.824 0.032-1.318 1.43-2.668 4.545-2.668 2.567-0.067 4.452 0.56 5.881 1.185l0.714 0.329 1.073-6.688zM81.341 20.564c0.65-1.779 3.152-8.668 3.152-8.668-0.033 0.067 0.649-1.812 1.039-2.966l0.553 2.669s1.494 7.415 1.818 8.964h-6.561zM91.087 0.561h-6.108c-1.882 0-3.313 0.56-4.125 2.57l-11.727 28.407h8.284l1.657-4.647h10.135c0.227 1.087 0.943 4.646 0.943 4.646h7.309l-6.369-30.976zM27.743 0.561l-7.732 21.123-0.844-4.284c-1.43-4.944-5.913-10.313-10.915-12.985l7.079 27.089h8.349l12.407-30.944h-8.346z"></path>
<path fill="#faa61a" style="fill: var(--color17, #faa61a)" d="M12.832 0.561h-12.703l-0.129 0.625c9.908 2.572 16.47 8.768 19.167 16.215l-2.762-14.237c-0.454-1.978-1.852-2.538-3.572-2.604z"></path>
</symbol>
<symbol id="whats-app" viewBox="0 0 32 32">
<path d="M22.297 18.747c-0.341-0.176-2.038-1.006-2.353-1.119-0.316-0.118-0.547-0.175-0.776 0.175-0.23 0.346-0.886 1.118-1.093 1.353-0.2 0.232-0.403 0.26-0.744 0.088-2.025-1.013-3.353-1.806-4.688-4.097-0.352-0.61 0.354-0.566 1.013-1.882 0.112-0.231 0.056-0.428-0.031-0.603s-0.774-1.869-1.062-2.56c-0.278-0.671-0.566-0.578-0.775-0.59-0.2-0.013-0.428-0.013-0.659-0.013s-0.603 0.088-0.918 0.428c-0.316 0.347-1.206 1.182-1.206 2.875s1.234 3.334 1.403 3.566c0.175 0.231 2.428 3.706 5.888 5.203 2.187 0.944 3.043 1.025 4.137 0.862 0.666-0.1 2.038-0.832 2.322-1.64s0.285-1.498 0.2-1.642c-0.084-0.153-0.315-0.24-0.656-0.406z"></path>
<path d="M28.912 10.575c-0.742-1.741-1.757-3.228-3.008-4.479l0 0c-1.25-1.253-2.737-2.269-4.389-2.974l-0.091-0.034c-1.594-0.688-3.449-1.088-5.398-1.088-0.009 0-0.019 0-0.028 0h-0.061c-3.868 0.009-7.366 1.59-9.889 4.137l-0.001 0.001c-1.24 1.246-2.245 2.728-2.942 4.372l-0.034 0.091c-0.678 1.587-1.071 3.434-1.071 5.373 0 0.033 0 0.065 0 0.098l-0-0.005c0.010 2.169 0.528 4.322 1.5 6.247v4.75c0 0.794 0.644 1.438 1.438 1.438h4.753c1.819 0.936 3.967 1.489 6.244 1.5h0.069c1.872 0 3.688-0.362 5.397-1.072 1.734-0.731 3.216-1.736 4.463-2.976l-0.001 0.001c2.548-2.525 4.128-6.022 4.138-9.889v-0.002c0-0.026 0-0.056 0-0.087 0-1.95-0.4-3.806-1.123-5.492l0.035 0.091zM24.19 24.263c-2.090 2.077-4.97 3.361-8.15 3.361-0.014 0-0.028-0-0.042-0h-0.051c-1.981-0.010-3.843-0.512-5.472-1.39l0.062 0.031-0.262-0.141h-4.4v-4.4l-0.141-0.262c-0.848-1.567-1.35-3.428-1.36-5.407v-0.003c-0.012-3.115 1.178-6.040 3.363-8.243 2.181-2.203 5.096-3.422 8.212-3.434h0.054c1.562 0 3.078 0.303 4.506 0.903 1.446 0.615 2.681 1.459 3.718 2.5l0 0c1.041 1.038 1.885 2.272 2.471 3.643l0.029 0.075c0.571 1.324 0.903 2.865 0.903 4.483 0 0.026-0 0.051-0 0.077l0-0.004c-0.018 3.113-1.24 6.029-3.44 8.21z"></path>
</symbol>
<symbol id="youtube" viewBox="0 0 32 32">
<path d="M30 15.912c0-0.068 0-0.146-0.003-0.237-0.003-0.254-0.010-0.538-0.016-0.841-0.026-0.959-0.075-1.849-0.148-2.731l0.011 0.171c-0.094-1.128-0.232-2.068-0.419-2.774-0.413-1.503-1.571-2.663-3.041-3.071l-0.031-0.007c-0.884-0.238-2.616-0.384-5.053-0.474-1.16-0.044-2.4-0.072-3.64-0.088-0.435-0.006-0.838-0.009-1.2-0.012h-0.92c-0.362 0.002-0.765 0.006-1.2 0.012-1.24 0.016-2.48 0.044-3.64 0.088-2.438 0.094-4.172 0.24-5.053 0.474-1.502 0.415-2.66 1.575-3.065 3.048l-0.007 0.031c-0.191 0.706-0.325 1.647-0.419 2.775-0.062 0.711-0.112 1.6-0.136 2.495l-0.001 0.064c-0.009 0.303-0.012 0.587-0.016 0.84 0 0.091-0.002 0.17-0.002 0.238v0.174c0 0.069 0 0.147 0.003 0.238 0.003 0.254 0.010 0.538 0.016 0.841 0.024 0.872 0.068 1.741 0.137 2.56 0.094 1.128 0.232 2.068 0.419 2.774 0.412 1.503 1.57 2.664 3.041 3.071l0.031 0.007c0.881 0.238 2.616 0.384 5.053 0.474 1.16 0.044 2.4 0.072 3.64 0.088 0.435 0.006 0.838 0.009 1.2 0.012h0.92c0.362-0.003 0.765-0.006 1.2-0.012 1.24-0.016 2.48-0.044 3.64-0.088 2.438-0.094 4.172-0.24 5.053-0.474 1.503-0.414 2.661-1.575 3.065-3.048l0.007-0.030c0.191-0.706 0.326-1.647 0.419-2.775 0.069-0.818 0.112-1.688 0.138-2.559 0.009-0.303 0.012-0.587 0.016-0.84 0-0.091 0.002-0.17 0.002-0.238v-0.174zM27.75 16.075c0 0.066 0 0.138-0.002 0.222-0.003 0.244-0.010 0.512-0.016 0.803-0.023 0.907-0.070 1.752-0.142 2.591l0.011-0.157c-0.084 1.006-0.203 1.831-0.35 2.384-0.199 0.725-0.757 1.284-1.466 1.481l-0.015 0.003c-0.656 0.175-2.31 0.315-4.556 0.4-1.396 0.055-3.064 0.091-4.738 0.097l-0.027 0h-0.895l-1.181-0.010c-1.348-0.016-2.601-0.048-3.85-0.096l0.266 0.008c-2.248-0.086-3.904-0.224-4.557-0.4-0.723-0.202-1.281-0.76-1.477-1.469l-0.003-0.015c-0.147-0.553-0.266-1.378-0.35-2.384-0.059-0.675-0.106-1.52-0.13-2.372l-0.001-0.063c-0.010-0.29-0.013-0.562-0.016-0.803 0-0.084-0.002-0.16-0.002-0.222v-0.15c0-0.066 0-0.138 0.002-0.222 0.003-0.244 0.010-0.512 0.016-0.803 0.022-0.832 0.066-1.662 0.131-2.434 0.084-1.006 0.203-1.831 0.35-2.384 0.199-0.725 0.757-1.284 1.466-1.481l0.015-0.004c0.656-0.175 2.31-0.315 4.556-0.4 1.396-0.056 3.064-0.091 4.738-0.097l0.027-0h0.894l1.181 0.010c1.222 0.016 2.444 0.043 3.584 0.088 2.248 0.086 3.904 0.224 4.557 0.4 0.718 0.193 1.288 0.762 1.482 1.484 0.146 0.553 0.265 1.378 0.35 2.384 0.066 0.772 0.106 1.603 0.131 2.434 0.010 0.29 0.013 0.562 0.016 0.803 0 0.084 0.003 0.16 0.003 0.222v0.15zM13.218 20.187l7.25-4.218-7.25-4.156v8.374z"></path>
</symbol>
<symbol id="bank" viewBox="0 0 32 32">
<path fill="#000" style="fill: var(--color1, #000); stroke: var(--color1, #000)" stroke="#000" stroke-linejoin="round" stroke-linecap="butt" stroke-miterlimit="4" stroke-width="0.795" d="M4.579 12.594h23.084v12.425h-23.084z"></path>
<path fill="#000" style="fill: var(--color1, #000); stroke: var(--color1, #000)" stroke="#000" stroke-linejoin="round" stroke-linecap="butt" stroke-miterlimit="4" stroke-width="0.5" d="M4.632 11.746h2.768v13.764h-2.768zM10.445 11.746h2.768v13.764h-2.768zM25.395 11.746h2.768v13.764h-2.768zM19.581 11.746h2.768v13.764h-2.767z"></path>
<path fill="#000" style="fill: var(--color1, #000); stroke: var(--color1, #000)" stroke="#000" stroke-linejoin="round" stroke-linecap="butt" stroke-miterlimit="4" stroke-width="0.4023" d="M0.723 27.006h31.008v1.323h-31.008z"></path>
<path fill="#000" style="fill: var(--color1, #000); stroke: var(--color1, #000)" stroke="#000" stroke-linejoin="round" stroke-linecap="butt" stroke-miterlimit="4" stroke-width="0.7613" d="M0.177 12.305l16.342-9.236 15.483 9.345z"></path>
<path fill="#000" style="fill: var(--color1, #000); stroke: var(--color1, #000)" stroke="#000" stroke-linejoin="round" stroke-linecap="butt" stroke-miterlimit="4" stroke-width="0.4023" d="M2.092 25.399h27.854v1.323h-27.854z"></path>
<path fill="#000" style="fill: var(--color1, #000); stroke: var(--color2, #ccd1d1)" stroke="#ccd1d1" stroke-linejoin="round" stroke-linecap="butt" stroke-miterlimit="4" stroke-width="0.775" d="M4.873 12.701h22.953v12.201h-22.953z"></path>
<path fill="#be8c47" style="fill: var(--color3, #be8c47); stroke: var(--color4, #937348)" stroke="#937348" stroke-linejoin="round" stroke-linecap="butt" stroke-miterlimit="4" stroke-width="0.6395" d="M13.661 17.017h5.54v7.785h-5.54z"></path>
<path fill="#000" style="fill: var(--color1, #000); stroke: var(--color2, #ccd1d1)" stroke="#ccd1d1" stroke-linejoin="round" stroke-linecap="butt" stroke-miterlimit="4" stroke-width="0.5" d="M4.833 12.694h2.789v12.597h-2.789z"></path>
<path fill="#000" style="fill: var(--color1, #000); stroke: var(--color2, #ccd1d1)" stroke="#ccd1d1" stroke-linejoin="round" stroke-linecap="butt" stroke-miterlimit="4" stroke-width="0.5" d="M10.409 12.694h2.88v12.597h-2.88z"></path>
<path fill="#000" style="fill: var(--color1, #000); stroke: var(--color2, #ccd1d1)" stroke="#ccd1d1" stroke-linejoin="round" stroke-linecap="butt" stroke-miterlimit="4" stroke-width="0.5" d="M25.162 12.603h2.698v12.687h-2.698z"></path>
<path fill="#000" style="fill: var(--color1, #000); stroke: var(--color2, #ccd1d1)" stroke="#ccd1d1" stroke-linejoin="round" stroke-linecap="butt" stroke-miterlimit="4" stroke-width="0.5" d="M19.496 12.694h2.698v12.597h-2.698z"></path>
<path fill="#dde4e4" style="fill: var(--color5, #dde4e4); stroke: var(--color6, #cad3d3)" stroke="#cad3d3" stroke-linejoin="round" stroke-linecap="butt" stroke-miterlimit="4" stroke-width="0.392" d="M1.115 26.749h30.22v1.29h-30.22z"></path>
<path fill="#000" style="fill: var(--color1, #000); stroke: var(--color2, #ccd1d1)" stroke="#ccd1d1" stroke-linejoin="round" stroke-linecap="butt" stroke-miterlimit="4" stroke-width="0.742" d="M0.849 12.243l15.493-8.736 15.258 9.020z"></path>
<path fill="#dde4e4" style="fill: var(--color5, #dde4e4); stroke: var(--color6, #cad3d3)" stroke="#cad3d3" stroke-linejoin="round" stroke-linecap="butt" stroke-miterlimit="4" stroke-width="0.392" d="M2.45 25.182h27.147v1.29h-27.147z"></path>
</symbol>
<symbol id="footer-logo" viewBox="0 0 67 32">
<path fill="#fff" style="fill: var(--color1, #fff)" d="M35.782 10.644c0.248 0 0.508 0.023 0.779 0.068 0.272 0.039 0.484 0.092 0.636 0.16 0.051 0.016 0.082 0.039 0.093 0.067 0.016 0.023 0.031 0.065 0.042 0.126l0.102 1.17c0 0.018-0.014 0.029-0.042 0.035s-0.046-0.003-0.050-0.026c-0.192-0.443-0.45-0.786-0.772-1.028-0.299-0.226-0.678-0.362-1.088-0.362-0.011 0-0.022 0-0.032 0l0.002-0c-0.56 0-0.992 0.205-1.297 0.615s-0.457 0.96-0.457 1.65c0 0.517 0.082 0.987 0.246 1.414 0.169 0.427 0.403 0.766 0.704 1.019 0.304 0.247 0.649 0.37 1.033 0.37 0.362 0 0.684-0.118 0.966-0.354 0.289-0.241 0.546-0.606 0.772-1.094 0.005-0.023 0.023-0.031 0.051-0.026 0.034 0.005 0.050 0.017 0.050 0.034l-0.127 1.146c-0.005 0.050-0.020 0.096-0.043 0.136l0.001-0.002c-0.012 0.016-0.043 0.037-0.093 0.059-0.46 0.176-0.993 0.278-1.549 0.278-0.001 0-0.002 0-0.003 0h0c-0.689 0-1.266-0.134-1.729-0.404-0.464-0.274-0.806-0.62-1.026-1.036-0.202-0.381-0.321-0.833-0.322-1.313v-0c0-0.534 0.144-1.006 0.432-1.415 0.298-0.409 0.689-0.733 1.143-0.943l0.018-0.008c0.451-0.213 0.98-0.337 1.538-0.337 0.008 0 0.015 0 0.023 0h-0.001zM42.13 15.899c0.022 0 0.034 0.016 0.034 0.050s-0.012 0.050-0.034 0.050c-0.147 0-0.266-0.003-0.357-0.009l-0.492-0.007-0.508 0.008c-0.085 0.005-0.201 0.008-0.347 0.008-0.011 0-0.017-0.016-0.017-0.050s0.006-0.051 0.017-0.051c0.175 0 0.294-0.039 0.357-0.118 0.067-0.084 0.101-0.238 0.101-0.463v-1.213c0-0.303-0.056-0.528-0.169-0.673s-0.288-0.219-0.526-0.219c-0.306 0.007-0.584 0.124-0.798 0.312l0.001-0.001v1.795c0 0.224 0.031 0.379 0.093 0.463 0.068 0.079 0.189 0.119 0.364 0.119 0.023 0 0.035 0.016 0.035 0.050s-0.012 0.050-0.035 0.050c-0.146 0-0.265-0.003-0.356-0.009l-0.492-0.007-0.508 0.008c-0.085 0.005-0.201 0.008-0.347 0.008-0.012 0-0.017-0.016-0.017-0.050s0.005-0.051 0.017-0.051c0.175 0 0.294-0.039 0.357-0.118 0.067-0.084 0.101-0.238 0.101-0.463v-4.279c0-0.196-0.019-0.336-0.059-0.421-0.025-0.074-0.095-0.126-0.176-0.126-0.004 0-0.007 0-0.011 0l0.001-0c-0.119 0.010-0.229 0.043-0.327 0.095l0.005-0.002h-0.008c-0.016 0-0.034-0.014-0.051-0.042-0.011-0.033-0.011-0.053 0-0.059l1.238-0.582 0.042-0.008c0.028 0 0.057 0.015 0.085 0.042 0.034 0.023 0.051 0.046 0.051 0.068v3.334c0.401-0.46 0.83-0.69 1.289-0.69 0.304 0 0.545 0.099 0.72 0.294 0.181 0.192 0.272 0.444 0.272 0.759v1.616c0 0.224 0.031 0.379 0.093 0.463 0.068 0.079 0.189 0.119 0.365 0.119zM44.901 12.665c0.13 0 0.254 0.048 0.372 0.144 0.124 0.090 0.187 0.199 0.187 0.329 0 0.117-0.037 0.216-0.11 0.294-0.070 0.068-0.166 0.11-0.272 0.11-0.006 0-0.011-0-0.017-0l0.001 0c-0.004 0-0.009 0-0.014 0-0.073 0-0.141-0.019-0.2-0.053l0.002 0.001c-0.061-0.044-0.114-0.094-0.16-0.15l-0.001-0.002c-0.039-0.046-0.084-0.085-0.134-0.117l-0.002-0.001c-0.033-0.026-0.074-0.042-0.12-0.042-0.002 0-0.005 0-0.007 0h0c-0.071 0.004-0.135 0.029-0.187 0.068l0.001-0.001c-0.11 0.081-0.207 0.167-0.295 0.26l-0.001 0.001v1.81c0 0.224 0.053 0.379 0.161 0.463 0.107 0.079 0.305 0.119 0.593 0.119 0.023 0 0.034 0.016 0.034 0.050s-0.011 0.050-0.034 0.050c-0.197 0-0.353-0.003-0.466-0.009l-0.687-0.007-0.5 0.008c-0.085 0.005-0.201 0.008-0.347 0.008-0.017 0-0.026-0.016-0.026-0.050s0.009-0.051 0.026-0.051c0.175 0 0.294-0.039 0.357-0.118 0.061-0.084 0.092-0.238 0.092-0.463v-1.584c0-0.174-0.022-0.3-0.068-0.379-0.031-0.075-0.103-0.126-0.187-0.126-0.003 0-0.006 0-0.008 0h0c-0.096 0-0.232 0.039-0.407 0.118h-0.017c-0.016 0-0.031-0.015-0.042-0.042-0.005-0.028-0.003-0.046 0.009-0.051l1.178-0.572c0.017-0.007 0.037-0.013 0.057-0.017l0.002-0c0.062 0 0.119 0.059 0.169 0.177 0.057 0.112 0.091 0.267 0.102 0.464 0.232-0.236 0.421-0.402 0.569-0.497 0.152-0.095 0.285-0.144 0.398-0.144zM45.993 16c-0.017 0-0.026-0.016-0.026-0.050s0.008-0.051 0.026-0.051c0.175 0 0.294-0.039 0.356-0.118 0.062-0.084 0.093-0.238 0.093-0.463v-1.508c0-0.191-0.020-0.329-0.059-0.412-0.031-0.075-0.103-0.126-0.187-0.126-0.003 0-0.006 0-0.008 0h0c-0.116 0.011-0.223 0.044-0.318 0.095l0.005-0.002h-0.009c-0.022 0-0.039-0.014-0.050-0.042-0.012-0.034-0.009-0.053 0.009-0.059l1.28-0.59 0.025-0.009c0.027 0 0.057 0.015 0.085 0.043s0.042 0.053 0.042 0.076v0.185c-0.011 0.225-0.017 0.5-0.017 0.826v1.524c0 0.224 0.032 0.379 0.093 0.463 0.069 0.079 0.19 0.119 0.366 0.119 0.016 0 0.025 0.016 0.025 0.050s-0.009 0.050-0.026 0.050c-0.146 0-0.262-0.003-0.347-0.009l-0.508-0.007-0.5 0.008c-0.085 0.005-0.201 0.008-0.347 0.008zM46.807 11.831c-0.165 0-0.292-0.044-0.382-0.134s-0.135-0.216-0.135-0.379c0-0.146 0.046-0.261 0.135-0.346 0.094-0.084 0.219-0.135 0.356-0.135 0.009 0 0.018 0 0.027 0.001l-0.001-0c0.158 0 0.28 0.042 0.364 0.126 0.080 0.085 0.129 0.2 0.129 0.326 0 0.010-0 0.020-0.001 0.029l0-0.001c0 0.163-0.043 0.289-0.128 0.379s-0.206 0.135-0.364 0.135zM48.974 13.154c0 0.163 0.057 0.303 0.17 0.421 0.119 0.119 0.288 0.241 0.508 0.37 0.215 0.124 0.373 0.222 0.475 0.295 0.107 0.068 0.203 0.165 0.288 0.294 0.084 0.123 0.127 0.275 0.127 0.455 0 0.001 0 0.001 0 0.002 0 0.41-0.231 0.767-0.57 0.946l-0.006 0.003c-0.193 0.101-0.422 0.152-0.688 0.152-0.311 0-0.604-0.076-0.881-0.227-0.034-0.034-0.051-0.068-0.051-0.101l-0.016-0.834c0-0.016 0.014-0.025 0.042-0.025 0.034-0.006 0.054-0.004 0.059 0.008 0.090 0.281 0.24 0.519 0.449 0.716 0.21 0.197 0.421 0.294 0.636 0.294 0.119 0 0.212-0.037 0.28-0.11 0.073-0.073 0.11-0.179 0.11-0.32 0-0.208-0.059-0.37-0.177-0.488-0.152-0.147-0.325-0.273-0.513-0.373l-0.012-0.006c-0.184-0.097-0.331-0.184-0.474-0.276l0.024 0.015c-0.109-0.076-0.2-0.172-0.268-0.282l-0.002-0.004c-0.075-0.122-0.119-0.27-0.119-0.428 0-0.010 0-0.019 0.001-0.029l-0 0.001c0-0.331 0.119-0.572 0.357-0.724 0.237-0.156 0.528-0.236 0.872-0.236 0.016-0.001 0.034-0.001 0.052-0.001 0.235 0 0.459 0.047 0.663 0.131l-0.012-0.004c0.050 0.018 0.076 0.048 0.076 0.093 0 0.14-0.003 0.25-0.008 0.329l-0.009 0.421c0 0.016-0.016 0.025-0.050 0.025s-0.051-0.008-0.051-0.025c0-0.107-0.045-0.222-0.135-0.346-0.095-0.133-0.214-0.243-0.351-0.326l-0.005-0.003c-0.124-0.083-0.276-0.132-0.439-0.133h-0c-0.232 0-0.347 0.11-0.347 0.328zM53.661 15.41c0.023 0 0.039 0.011 0.051 0.034 0.016 0.023 0.016 0.039 0 0.050-0.175 0.181-0.376 0.335-0.598 0.457l-0.013 0.007c-0.182 0.090-0.395 0.143-0.622 0.143-0.002 0-0.004 0-0.006 0h0c-0.249 0-0.461-0.058-0.636-0.176s-0.262-0.317-0.262-0.598v-1.87c0-0.174-0.031-0.294-0.093-0.362s-0.176-0.101-0.338-0.101c-0.006 0-0.015-0.009-0.026-0.026-0.005-0.015-0.008-0.032-0.008-0.050s0.003-0.035 0.008-0.051l-0 0.001c0.006-0.017 0.015-0.026 0.026-0.026 0.288-0.011 0.52-0.073 0.695-0.186 0.181-0.112 0.32-0.283 0.416-0.514 0.011-0.022 0.034-0.033 0.068-0.033 0.039 0 0.059 0.011 0.059 0.034v0.673c0.327-0.005 0.695-0.031 1.102-0.076 0.012 0 0.023 0.023 0.034 0.068 0.016 0.038 0.026 0.082 0.026 0.129 0 0.002-0 0.004-0 0.006v-0c-0 0.061-0.013 0.119-0.035 0.172l0.001-0.003c-0.017 0.050-0.037 0.073-0.059 0.067-0.318-0.073-0.685-0.118-1.062-0.126l-0.006-0v1.996c0 0.213 0.053 0.37 0.161 0.472 0.113 0.101 0.26 0.152 0.441 0.152 0.226 0 0.446-0.084 0.661-0.253l0.017-0.008zM60.282 15.899c0.022 0 0.033 0.016 0.033 0.050s-0.011 0.050-0.033 0.050c-0.147 0-0.263-0.003-0.347-0.009l-0.509-0.007-0.492 0.008c-0.095 0.005-0.206 0.008-0.317 0.008-0.014 0-0.028-0-0.041-0h0.002c-0.016 0-0.025-0.016-0.025-0.050s0.009-0.051 0.026-0.051c0.175 0 0.294-0.039 0.357-0.118 0.067-0.084 0.101-0.238 0.101-0.463v-1.213c0-0.303-0.053-0.528-0.161-0.673-0.101-0.146-0.26-0.219-0.474-0.219-0.313 0.003-0.595 0.135-0.796 0.345l-0 0v1.76c0 0.224 0.031 0.379 0.093 0.463 0.068 0.079 0.189 0.119 0.364 0.119 0.023 0 0.034 0.016 0.034 0.050s-0.011 0.050-0.034 0.050c-0.146 0-0.262-0.003-0.347-0.009l-0.508-0.007-0.492 0.008c-0.090 0.005-0.209 0.008-0.357 0.008-0.016 0-0.025-0.016-0.025-0.050s0.009-0.051 0.026-0.051c0.175 0 0.294-0.039 0.357-0.118 0.067-0.084 0.101-0.238 0.101-0.463v-1.213c0-0.303-0.053-0.528-0.161-0.673-0.102-0.146-0.26-0.219-0.474-0.219-0.135 0-0.272 0.027-0.407 0.084-0.135 0.053-0.25 0.127-0.348 0.22l0.001-0v1.801c0 0.226 0.031 0.379 0.093 0.464 0.068 0.079 0.189 0.119 0.364 0.119 0.017 0 0.026 0.016 0.026 0.050s-0.008 0.050-0.026 0.050c-0.146 0-0.262-0.003-0.347-0.009l-0.508-0.007-0.5 0.008c-0.085 0.005-0.201 0.008-0.347 0.008-0.017 0-0.026-0.016-0.026-0.050s0.009-0.051 0.026-0.051c0.176 0 0.294-0.039 0.357-0.118 0.061-0.084 0.092-0.238 0.092-0.463v-1.584c0-0.174-0.022-0.3-0.068-0.379-0.031-0.075-0.103-0.126-0.187-0.126-0.003 0-0.006 0-0.008 0h0c-0.096 0-0.232 0.039-0.407 0.118h-0.017c-0.016 0-0.031-0.015-0.042-0.042-0.005-0.028-0.003-0.046 0.009-0.051l1.178-0.572c0.017-0.007 0.037-0.013 0.057-0.017l0.002-0c0.062 0 0.122 0.062 0.177 0.186 0.057 0.119 0.091 0.278 0.102 0.48 0.384-0.454 0.796-0.682 1.237-0.682 0.266 0 0.478 0.064 0.636 0.194s0.254 0.315 0.288 0.556c0.39-0.5 0.823-0.75 1.297-0.75 0.304 0 0.537 0.087 0.695 0.261 0.165 0.174 0.246 0.438 0.246 0.791v1.617c0 0.224 0.031 0.379 0.093 0.463 0.068 0.079 0.189 0.119 0.364 0.119zM64.073 15.546c0.023 0 0.037 0.014 0.042 0.042 0.012 0.022 0.006 0.039-0.016 0.050l-0.873 0.412c-0.023 0.011-0.051 0.017-0.080 0.017-0.002 0-0.004-0-0.006-0h0c-0.085 0-0.169-0.043-0.254-0.127-0.083-0.094-0.143-0.211-0.168-0.34l-0.001-0.005-0.39 0.21c-0.126 0.065-0.278 0.128-0.434 0.179l-0.023 0.007c-0.126 0.040-0.272 0.064-0.423 0.067l-0.002 0c-0.181 0-0.325-0.045-0.432-0.134-0.102-0.095-0.153-0.23-0.153-0.404 0-0.129 0.031-0.233 0.093-0.311 0.076-0.084 0.169-0.15 0.275-0.193l0.005-0.002c0.144-0.065 0.338-0.139 0.536-0.205l0.049-0.014 0.864-0.277v-0.666c0-0.336-0.034-0.583-0.101-0.741-0.069-0.163-0.178-0.244-0.331-0.244-0.005-0-0.010-0-0.016-0-0.125 0-0.235 0.059-0.306 0.15l-0.001 0.001c-0.079 0.101-0.127 0.267-0.144 0.497-0.034 0.315-0.201 0.472-0.5 0.472-0.265 0-0.399-0.115-0.399-0.346 0-0.152 0.096-0.304 0.288-0.454s0.424-0.275 0.695-0.371c0.272-0.095 0.509-0.143 0.713-0.143 0.265 0 0.48 0.079 0.644 0.236 0.169 0.157 0.254 0.387 0.254 0.69v1.49c0 0.163 0.028 0.289 0.085 0.379 0.053 0.081 0.143 0.134 0.246 0.134 0.003 0 0.006-0 0.008-0h-0c0.090-0.001 0.174-0.023 0.249-0.060l-0.003 0.002h0.009zM62.692 15.461c-0.006-0.047-0.009-0.102-0.009-0.158 0-0.007 0-0.013 0-0.020v0.001-0.624l-0.466 0.169c-0.127 0.041-0.238 0.104-0.331 0.186l0.001-0.001c-0.058 0.062-0.093 0.145-0.093 0.237 0 0.003 0 0.005 0 0.008v-0c0 0.119 0.034 0.21 0.102 0.278s0.153 0.101 0.254 0.101c0.124 0 0.269-0.038 0.432-0.117l0.11-0.059zM65.174 13.154c0 0.163 0.057 0.303 0.17 0.421 0.119 0.119 0.288 0.241 0.508 0.37 0.215 0.124 0.373 0.222 0.475 0.295 0.107 0.068 0.203 0.165 0.288 0.294 0.084 0.123 0.127 0.275 0.127 0.455 0 0.001 0 0.001 0 0.002 0 0.41-0.231 0.767-0.57 0.946l-0.006 0.003c-0.192 0.101-0.421 0.152-0.688 0.152-0.311 0-0.604-0.076-0.881-0.227-0.034-0.034-0.051-0.068-0.051-0.101l-0.016-0.834c0-0.016 0.014-0.025 0.042-0.025 0.034-0.006 0.054-0.004 0.059 0.008 0.091 0.281 0.24 0.519 0.45 0.716s0.421 0.294 0.635 0.294c0.119 0 0.212-0.037 0.28-0.11 0.073-0.073 0.11-0.179 0.11-0.32 0-0.208-0.059-0.37-0.177-0.488-0.152-0.147-0.325-0.273-0.513-0.373l-0.012-0.006c-0.184-0.097-0.331-0.184-0.474-0.276l0.024 0.015c-0.109-0.076-0.2-0.172-0.268-0.282l-0.002-0.004c-0.075-0.122-0.119-0.27-0.119-0.428 0-0.010 0-0.019 0.001-0.029l-0 0.001c0-0.331 0.119-0.572 0.357-0.724 0.237-0.156 0.528-0.236 0.872-0.236 0.016-0.001 0.034-0.001 0.052-0.001 0.235 0 0.459 0.047 0.663 0.131l-0.012-0.004c0.051 0.018 0.076 0.048 0.076 0.093 0 0.14-0.003 0.25-0.008 0.329l-0.009 0.421c0 0.016-0.016 0.025-0.050 0.025s-0.050-0.008-0.050-0.025c0-0.107-0.046-0.222-0.136-0.346-0.095-0.133-0.214-0.243-0.351-0.326l-0.005-0.003c-0.124-0.083-0.276-0.132-0.439-0.133h-0c-0.232 0-0.347 0.11-0.347 0.328zM34.094 20.194c-0.672 0-1.156 0.435-1.449 1.305-0.005 0.017-0.023 0.026-0.051 0.026-0.027-0.006-0.042-0.016-0.042-0.034 0.023-0.224 0.048-0.514 0.077-0.867 0.027-0.359 0.042-0.629 0.042-0.809 0-0.027 0.014-0.042 0.042-0.042 0.034 0 0.051 0.015 0.051 0.042 0 0.123 0.161 0.186 0.483 0.186 0.486 0.016 1.054 0.025 1.704 0.025 0.334 0 0.686-0.006 1.060-0.016l0.576-0.009c0.215 0 0.37-0.013 0.466-0.041 0.102-0.027 0.167-0.084 0.195-0.168 0.006-0.023 0.023-0.034 0.051-0.034 0.034 0 0.051 0.011 0.051 0.034-0.017 0.168-0.037 0.438-0.059 0.808-0.017 0.37-0.026 0.667-0.026 0.892 0 0.017-0.014 0.026-0.042 0.026s-0.046-0.009-0.051-0.026c-0.085-0.432-0.243-0.755-0.475-0.969-0.214-0.203-0.505-0.328-0.824-0.328-0.011 0-0.022 0-0.033 0l0.002-0c-0.164 0-0.274 0.037-0.33 0.11-0.051 0.067-0.077 0.198-0.077 0.395v3.882c0 0.174 0.017 0.301 0.051 0.379 0.037 0.080 0.107 0.139 0.193 0.16l0.002 0c0.096 0.027 0.249 0.042 0.458 0.042 0.017 0 0.026 0.016 0.026 0.050s-0.009 0.050-0.026 0.050c-0.204 0-0.365-0.003-0.484-0.008l-0.704-0.008-0.686 0.009c-0.119 0.005-0.283 0.007-0.492 0.007-0.016 0-0.026-0.016-0.026-0.050s0.009-0.050 0.026-0.050c0.204 0 0.353-0.014 0.449-0.042 0.102-0.027 0.17-0.082 0.204-0.16 0.039-0.084 0.059-0.21 0.059-0.379v-3.898c0-0.191-0.026-0.32-0.077-0.388s-0.155-0.101-0.314-0.101zM39.583 21.928c0.131 0 0.255 0.048 0.373 0.144 0.124 0.090 0.187 0.199 0.187 0.328 0 0.118-0.037 0.216-0.11 0.294-0.070 0.068-0.166 0.11-0.272 0.11-0.006 0-0.012-0-0.018-0l0.001 0c-0.004 0-0.009 0-0.015 0-0.072 0-0.14-0.019-0.199-0.052l0.002 0.001c-0.061-0.044-0.114-0.094-0.16-0.15l-0.001-0.002c-0.039-0.046-0.084-0.085-0.134-0.117l-0.002-0.001c-0.033-0.026-0.075-0.042-0.12-0.042-0.002 0-0.005 0-0.007 0h0c-0.071 0.004-0.135 0.029-0.187 0.068l0.001-0.001c-0.11 0.081-0.207 0.166-0.295 0.26l-0.001 0.001v1.81c0 0.225 0.053 0.379 0.161 0.464 0.107 0.079 0.305 0.118 0.593 0.118 0.022 0 0.034 0.016 0.034 0.050s-0.012 0.050-0.034 0.050c-0.198 0-0.354-0.003-0.466-0.008l-0.687-0.008-0.5 0.009c-0.085 0.005-0.201 0.007-0.347 0.007-0.017 0-0.026-0.016-0.026-0.050s0.009-0.050 0.026-0.050c0.175 0 0.294-0.039 0.357-0.118 0.061-0.084 0.092-0.239 0.092-0.464v-1.583c0-0.174-0.023-0.301-0.068-0.379-0.031-0.075-0.103-0.126-0.187-0.126-0.003 0-0.006 0-0.008 0h0c-0.096 0-0.232 0.039-0.407 0.119h-0.017c-0.017 0-0.031-0.015-0.042-0.043-0.006-0.027-0.003-0.045 0.008-0.050l1.178-0.573c0.017-0.007 0.037-0.012 0.057-0.016l0.002-0c0.062 0 0.119 0.059 0.169 0.176 0.057 0.112 0.090 0.267 0.102 0.464 0.232-0.236 0.421-0.401 0.569-0.496 0.152-0.096 0.285-0.144 0.398-0.144zM43.536 24.708c0.011 0 0.022 0.011 0.034 0.033 0.016 0.023 0.019 0.039 0.008 0.051-0.209 0.201-0.421 0.347-0.635 0.438-0.202 0.085-0.437 0.134-0.684 0.134-0.007 0-0.014-0-0.021-0h0.001c-0.357 0-0.664-0.073-0.923-0.219-0.251-0.143-0.453-0.346-0.59-0.589l-0.004-0.008c-0.128-0.232-0.203-0.508-0.203-0.801 0-0.003 0-0.006 0-0.008v0c0-0.326 0.085-0.625 0.254-0.901 0.169-0.279 0.405-0.503 0.685-0.653l0.010-0.005c0.294-0.163 0.622-0.244 0.984-0.244 0.35 0 0.619 0.076 0.805 0.228 0.187 0.146 0.281 0.347 0.281 0.606 0 0.163-0.031 0.244-0.093 0.244h-0.517l-1.526 0.017c-0.016 0.102-0.026 0.22-0.026 0.34 0 0.005 0 0.010 0 0.015v-0.001c0 0.483 0.113 0.864 0.339 1.145 0.232 0.281 0.549 0.421 0.95 0.421 0.141 0 0.288-0.018 0.441-0.058s0.291-0.098 0.415-0.176l0.017-0.009zM42.137 22.105c-0.176 0-0.334 0.078-0.44 0.202l-0.001 0.001c-0.124 0.134-0.215 0.32-0.272 0.555l1.204-0.025c-0.017-0.488-0.181-0.733-0.492-0.733zM47.113 24.708c0.012 0 0.023 0.011 0.034 0.033 0.017 0.023 0.020 0.039 0.009 0.051-0.209 0.201-0.421 0.347-0.636 0.438-0.202 0.085-0.437 0.135-0.684 0.135-0.007 0-0.014-0-0.022-0h0.001c-0.356 0-0.663-0.073-0.923-0.219-0.25-0.143-0.452-0.346-0.589-0.589l-0.004-0.008c-0.128-0.232-0.203-0.508-0.203-0.802 0-0.003 0-0.005 0-0.008v0c0-0.326 0.084-0.625 0.254-0.901 0.169-0.279 0.405-0.503 0.685-0.653l0.010-0.005c0.294-0.163 0.622-0.244 0.984-0.244 0.35 0 0.618 0.076 0.805 0.228 0.187 0.146 0.28 0.347 0.28 0.606 0 0.163-0.031 0.244-0.093 0.244h-0.517l-1.527 0.017c-0.016 0.1-0.025 0.216-0.025 0.333 0 0.007 0 0.014 0 0.021v-0.001c0 0.483 0.113 0.864 0.338 1.145 0.232 0.281 0.549 0.421 0.951 0.421 0.141 0 0.288-0.018 0.44-0.058s0.292-0.098 0.416-0.176l0.016-0.009zM45.714 22.105c-0.176 0-0.334 0.078-0.44 0.202l-0.001 0.001c-0.124 0.134-0.215 0.32-0.271 0.555l1.203-0.025c-0.016-0.488-0.18-0.733-0.491-0.733zM48.453 22.416c0 0.163 0.057 0.304 0.169 0.421 0.119 0.119 0.289 0.242 0.509 0.371 0.215 0.123 0.373 0.222 0.474 0.294 0.107 0.068 0.203 0.166 0.288 0.295 0.085 0.123 0.128 0.274 0.128 0.454 0 0.001 0 0.002 0 0.002 0 0.411-0.231 0.767-0.571 0.947l-0.006 0.003c-0.192 0.101-0.421 0.152-0.687 0.152-0.311 0-0.605-0.076-0.882-0.228-0.034-0.034-0.050-0.068-0.050-0.101l-0.017-0.834c0-0.017 0.015-0.026 0.043-0.026 0.034-0.006 0.053-0.003 0.059 0.009 0.090 0.28 0.24 0.518 0.449 0.715s0.421 0.295 0.635 0.295c0.119 0 0.212-0.037 0.28-0.11 0.073-0.073 0.11-0.18 0.11-0.32 0-0.208-0.059-0.37-0.177-0.488-0.152-0.147-0.325-0.273-0.513-0.373l-0.012-0.006c-0.184-0.097-0.33-0.183-0.473-0.275l0.024 0.015c-0.11-0.076-0.2-0.172-0.269-0.282l-0.002-0.004c-0.075-0.122-0.119-0.27-0.119-0.428 0-0.010 0-0.019 0.001-0.029l-0 0.001c0-0.331 0.119-0.572 0.357-0.724 0.238-0.157 0.528-0.236 0.873-0.236 0.015-0 0.033-0.001 0.051-0.001 0.235 0 0.46 0.047 0.664 0.131l-0.012-0.004c0.050 0.017 0.076 0.048 0.076 0.093 0 0.14-0.003 0.25-0.009 0.328l-0.008 0.421c0 0.017-0.016 0.026-0.050 0.026s-0.051-0.009-0.051-0.026c0-0.106-0.046-0.221-0.135-0.345-0.095-0.133-0.214-0.243-0.351-0.326l-0.005-0.003c-0.124-0.083-0.276-0.133-0.44-0.134h-0c-0.231 0-0.347 0.11-0.347 0.329z"></path>
<path fill="#3dad52" style="fill: var(--color2, #3dad52)" d="M15.32-0.031h0.567c-0.278 0.444-0.875 1.549-1.456 2.663l-0.338 0.711c-0.487 0.935-0.996 2.089-1.437 3.277l-0.073 0.223c-0.289 0.702-0.456 1.517-0.456 2.37 0 0.156 0.006 0.31 0.017 0.463l-0.001-0.021c0.048 0.338 0.281 0.611 0.592 0.717l0.006 0.002c2.728 0.222 5.455 0.191 8.179-0.094 0.497 0.593 0.979 1.198 1.446 1.812-0.029 0.075-0.091 0.117-0.188 0.125-2.88 0.448-5.774 0.615-8.682 0.5-3.487 8.326-4.5 10.536-5.521 12.741l2.501-6.022c0.264 0.085 0.537 0.116 0.817 0.093 0.366-1.222 0.774-2.431 1.227-3.624 0.325 1.266 0.628 2.537 0.912 3.813 0.729 0.034 1.584 0.054 2.444 0.054 2.599 0 5.157-0.179 7.661-0.526l-0.29 0.033c0.5 0.665 1.024 1.31 1.573 1.938-1.562 0.344-3.416 0.6-5.308 0.714l-0.102 0.005c-1.072 0.059-2.326 0.092-3.588 0.092-1.46 0-2.91-0.045-4.347-0.133l0.197 0.010-0.251 0.062c-0.843 0.929-1.55 2.002-2.077 3.174l-0.031 0.077c-0.398 0.83-0.377 1.642 0.062 2.438 0.358 0.391 0.789 0.662 1.29 0.813-1.529-0.104-2.911-0.27-4.27-0.504l0.244 0.035c-1.059-0.055-1.867-0.523-2.423-1.406-0.325-0.847-0.178-1.596 0.441-2.25 0.593-0.664 1.981-2.281 3.363-3.904l0.884-1.065c-0.812-0.166-1.426-0.317-2.031-0.487l0.207 0.050c-1.362-0.754-1.562-1.744-0.598-2.969 1.248-1.435 2.801-3.276 4.333-5.135l0.417-0.521c-0.396-0.091-0.909-0.178-1.43-0.242l-0.079-0.008c-1.114-0.187-1.585-0.823-1.415-1.906 1.314-1.559 3.27-3.959 5.204-6.378l0.771-0.998c0.287-0.359 0.633-0.63 1.038-0.812z"></path>
<path fill="#4cc067" style="fill: var(--color3, #4cc067)" opacity="0.993" d="M15.886-0.031h0.944c0.322 0.121 0.605 0.308 0.849 0.562 2.422 3.079 4.44 5.54 6.498 7.966l-0.333-0.403c0.26 0.89-0.045 1.505-0.912 1.843-0.665 0.158-1.335 0.273-2.013 0.344-2.725 0.285-5.451 0.316-8.179 0.094-0.317-0.108-0.55-0.381-0.597-0.715l-0.001-0.005c-0.010-0.132-0.015-0.287-0.015-0.442 0-0.854 0.168-1.668 0.471-2.413l-0.015 0.043c0.513-1.411 1.022-2.565 1.594-3.682l-0.085 0.182c0.918-1.826 1.515-2.931 2.127-4.026l-0.334 0.651z"></path>
<path fill="#4cc067" style="fill: var(--color3, #4cc067)" opacity="0.995" d="M22.366 12.093c1.225 1.434 2.453 2.871 3.681 4.313 0.475 0.952 0.277 1.733-0.598 2.344-0.643 0.321-1.398 0.515-2.197 0.53l-0.005 0c-3.257 0.437-6.528 0.583-9.815 0.439-0.283-1.275-0.588-2.546-0.912-3.813-0.337 0.824-0.754 2.028-1.129 3.251l-0.098 0.373c-0.053 0.005-0.115 0.008-0.178 0.008-0.229 0-0.449-0.037-0.655-0.105l0.015 0.004c1.015-2.235 2.021-4.474 3.021-6.719 0.531 0.023 1.154 0.035 1.779 0.035 2.437 0 4.828-0.195 7.159-0.569l-0.256 0.034c0.096-0.009 0.159-0.050 0.188-0.125z"></path>
<path fill="#4dc067" style="fill: var(--color4, #4dc067)" opacity="0.992" d="M24.82 21.219c1.255 1.501 2.232 2.64 3.22 3.77l-0.231-0.27c0.604 1.182 0.343 2.13-0.786 2.843-0.613 0.28-1.253 0.457-1.92 0.531-0.707-0.851-1.511-1.868-2.293-2.902l-0.16-0.222c-0.032 1.146-0.042 2.291-0.032 3.438-1.213 0.117-2.43 0.201-3.648 0.25-1.931 0.075-3.86 0.075-5.789 0-0.905-0.017-1.776-0.084-2.632-0.2l0.115 0.013c-0.513-0.156-0.949-0.438-1.287-0.81l-0.002-0.002c-0.44-0.795-0.461-1.607-0.064-2.438 0.557-1.249 1.265-2.322 2.117-3.26l-0.009 0.010 0.251-0.062c2.578 0.153 5.158 0.164 7.739 0.031 1.995-0.119 3.849-0.375 5.654-0.762l-0.243 0.044z"></path>
<path fill="#7f4a26" style="fill: var(--color5, #7f4a26)" opacity="0.98" d="M13.18 28.656c1.929 0.075 3.858 0.075 5.788 0 0.095 0.368 0.158 0.742 0.188 1.125-0.848 0.045-1.841 0.071-2.839 0.071-0.329 0-0.657-0.003-0.984-0.008l0.049 0.001v2.062c-0.953-0.096-1.827-0.339-2.631-0.709l0.051 0.021-0.062-0.124c0.154-0.812 0.3-1.625 0.44-2.438z"></path>
<path fill="#925c34" style="fill: var(--color6, #925c34)" d="M19.157 29.781c0.097 0.406 0.181 0.823 0.252 1.25l-0.064 0.188c-0.98 0.45-2.126 0.712-3.333 0.712-0.221 0-0.441-0.009-0.658-0.026l0.029 0.002v-2.063c1.269 0.020 2.527 0 3.774-0.063z"></path>
</symbol>
</defs>
</svg>
