<svg width="40" height="40" fill="none" xmlns="http://www.w3.org/2000/svg"><path d="M20 3.077c-4.592 0-5.17.021-6.974.101-1.805.085-3.034.369-4.11.787a8.286 8.286 0 0 0-2.998 1.953 8.307 8.307 0 0 0-1.953 2.997c-.418 1.075-.704 2.306-.787 4.104-.08 1.809-.101 2.384-.101 6.983 0 4.595.021 5.17.101 6.975.085 1.802.369 3.03.787 4.108a8.312 8.312 0 0 0 1.953 2.997 8.259 8.259 0 0 0 2.995 1.953c1.08.418 2.306.704 4.108.787 1.807.08 2.382.101 6.979.101 4.597 0 5.17-.021 6.977-.102 1.8-.084 3.033-.368 4.11-.786a8.284 8.284 0 0 0 2.995-1.953 8.313 8.313 0 0 0 1.953-2.997c.416-1.077.702-2.306.787-4.108.08-1.805.101-2.38.101-6.977s-.021-5.172-.102-6.979c-.084-1.8-.37-3.031-.786-4.106a8.306 8.306 0 0 0-1.953-2.997 8.273 8.273 0 0 0-2.997-1.953c-1.08-.418-2.31-.704-4.11-.787-1.807-.08-2.38-.101-6.98-.101h.007H20Zm-1.517 3.05h1.52c4.518 0 5.053.015 6.836.098 1.65.074 2.547.35 3.144.581a5.25 5.25 0 0 1 1.946 1.267 5.228 5.228 0 0 1 1.265 1.947c.232.594.507 1.49.581 3.14.083 1.784.1 2.32.1 6.836s-.017 5.053-.1 6.837c-.074 1.65-.35 2.545-.581 3.141a5.225 5.225 0 0 1-1.268 1.944 5.23 5.23 0 0 1-1.946 1.265c-.592.233-1.489.508-3.141.584-1.783.08-2.318.1-6.837.1-4.518 0-5.056-.02-6.839-.1-1.65-.076-2.545-.351-3.141-.584a5.243 5.243 0 0 1-1.946-1.265 5.247 5.247 0 0 1-1.27-1.946c-.23-.595-.507-1.491-.581-3.141-.08-1.784-.098-2.319-.098-6.84 0-4.518.017-5.051.098-6.834.076-1.65.35-2.547.583-3.144a5.25 5.25 0 0 1 1.268-1.946 5.229 5.229 0 0 1 1.946-1.265c.596-.233 1.491-.508 3.141-.584 1.561-.072 2.166-.093 5.32-.095v.004Zm10.552 2.81a2.031 2.031 0 1 0 0 4.062 2.031 2.031 0 0 0 0-4.062Zm-9.033 2.373a8.692 8.692 0 1 0-.271 17.381 8.692 8.692 0 0 0 .271-17.381Zm0 3.048a5.641 5.641 0 1 1 0 11.283 5.641 5.641 0 0 1 0-11.283Z" fill="#fff"/></svg>