<svg width="164" height="76" fill="none" xmlns="http://www.w3.org/2000/svg"><path d="M84.42 25.28c.587 0 1.2.053 1.84.16.64.093 1.14.22 1.5.38.12.04.193.093.22.16.04.053.073.153.1.3l.24 2.78c0 .04-.033.067-.1.08-.067.013-.107-.007-.12-.06-.453-1.053-1.06-1.867-1.82-2.44s-1.64-.86-2.64-.86c-1.32 0-2.34.487-3.06 1.46-.72.973-1.08 2.28-1.08 3.92 0 1.227.193 2.347.58 3.36.4 1.013.953 1.82 1.66 2.42a3.76 3.76 0 0 0 2.44.88c.853 0 1.613-.28 2.28-.84.68-.573 1.287-1.44 1.82-2.6.013-.053.053-.073.12-.06.08.013.12.04.12.08l-.3 2.72c-.027.16-.06.267-.1.32-.027.04-.1.087-.22.14-1.187.44-2.407.66-3.66.66-1.627 0-2.987-.32-4.08-.96-1.093-.653-1.9-1.473-2.42-2.46-.507-1-.76-2.04-.76-3.12 0-1.267.34-2.387 1.02-3.36.693-.973 1.607-1.727 2.74-2.26a8.62 8.62 0 0 1 3.68-.8Zm14.979 12.48c.053 0 .08.04.08.12 0 .08-.027.12-.08.12-.347 0-.627-.007-.84-.02l-1.16-.02-1.2.02c-.2.013-.473.02-.82.02-.027 0-.04-.04-.04-.12 0-.08.013-.12.04-.12.413 0 .693-.093.84-.28.16-.2.24-.567.24-1.1V33.5c0-.72-.133-1.253-.4-1.6-.267-.347-.68-.52-1.24-.52-.32 0-.653.067-1 .2a2.948 2.948 0 0 0-.88.54v4.26c0 .533.073.9.22 1.1.16.187.447.28.86.28.053 0 .08.04.08.12 0 .08-.027.12-.08.12-.347 0-.627-.007-.84-.02l-1.16-.02-1.2.02c-.2.013-.473.02-.82.02-.027 0-.04-.04-.04-.12 0-.08.013-.12.04-.12.413 0 .693-.093.84-.28.16-.2.24-.567.24-1.1V26.22c0-.467-.047-.8-.14-1a.438.438 0 0 0-.44-.3c-.187 0-.44.073-.76.22h-.02c-.04 0-.08-.033-.12-.1-.027-.08-.027-.127 0-.14l2.92-1.38.1-.02c.067 0 .133.033.2.1.08.053.12.107.12.16v7.92c.947-1.093 1.96-1.64 3.04-1.64.72 0 1.287.233 1.7.7.427.453.64 1.053.64 1.8v3.84c0 .533.073.9.22 1.1.16.187.447.28.86.28Zm6.536-7.68c.306 0 .6.113.88.34.293.213.44.473.44.78a.99.99 0 0 1-.26.7c-.174.173-.4.26-.68.26-.2 0-.367-.04-.5-.12-.12-.08-.247-.2-.38-.36a1.405 1.405 0 0 0-.32-.28.453.453 0 0 0-.3-.1c-.134 0-.28.053-.44.16-.147.093-.38.3-.7.62v4.3c0 .533.126.9.38 1.1.253.187.72.28 1.4.28.053 0 .08.04.08.12 0 .08-.027.12-.08.12-.467 0-.834-.007-1.1-.02l-1.62-.02-1.18.02c-.2.013-.474.02-.82.02-.04 0-.06-.04-.06-.12 0-.08.02-.12.06-.12.413 0 .693-.093.84-.28.146-.2.22-.567.22-1.1v-3.76c0-.413-.054-.713-.16-.9a.476.476 0 0 0-.46-.3c-.227 0-.547.093-.96.28h-.04c-.04 0-.074-.033-.1-.1-.014-.067-.007-.107.02-.12l2.78-1.36a.814.814 0 0 1 .14-.04c.146 0 .28.14.4.42.133.267.213.633.24 1.1.546-.56.993-.953 1.34-1.18.36-.227.673-.34.94-.34Zm2.578 7.92c-.04 0-.06-.04-.06-.12 0-.08.02-.12.06-.12.413 0 .693-.093.84-.28.146-.2.22-.567.22-1.1V32.8c0-.453-.047-.78-.14-.98a.476.476 0 0 0-.46-.3c-.174 0-.42.073-.74.22h-.02c-.054 0-.094-.033-.12-.1-.027-.08-.02-.127.02-.14l3.02-1.4.06-.02c.066 0 .133.033.2.1.066.067.1.127.1.18v.44c-.027.533-.04 1.187-.04 1.96v3.62c0 .533.073.9.22 1.1.16.187.446.28.86.28.04 0 .06.04.06.12 0 .08-.02.12-.06.12-.347 0-.62-.007-.82-.02l-1.2-.02-1.18.02c-.2.013-.474.02-.82.02Zm1.92-9.9c-.387 0-.687-.107-.9-.32-.214-.213-.32-.513-.32-.9 0-.347.106-.62.32-.82.226-.213.526-.32.9-.32.373 0 .66.1.86.3.2.2.3.48.3.84 0 .387-.1.687-.3.9-.2.213-.487.32-.86.32Zm5.114 3.14c0 .387.133.72.4 1 .28.28.68.573 1.2.88.506.293.88.527 1.12.7.253.16.48.393.68.7.2.293.3.653.3 1.08 0 .453-.114.88-.34 1.28-.227.4-.567.727-1.02.98-.454.24-.994.36-1.62.36-.734 0-1.427-.18-2.08-.54-.08-.08-.12-.16-.12-.24l-.04-1.98c0-.04.033-.06.1-.06.08-.013.126-.007.14.02a3.95 3.95 0 0 0 1.06 1.7c.493.467.993.7 1.5.7.28 0 .5-.087.66-.26.173-.173.26-.427.26-.76 0-.493-.14-.88-.42-1.16-.28-.293-.694-.593-1.24-.9-.467-.253-.82-.46-1.06-.62a2.244 2.244 0 0 1-.64-.68c-.187-.293-.28-.653-.28-1.08 0-.787.28-1.36.84-1.72.56-.373 1.246-.56 2.06-.56.306 0 .58.02.82.06.253.04.533.12.84.24.12.04.18.113.18.22 0 .333-.007.593-.02.78l-.02 1c0 .04-.04.06-.12.06-.08 0-.12-.02-.12-.06 0-.253-.107-.527-.32-.82a2.796 2.796 0 0 0-.84-.78 1.904 1.904 0 0 0-1.04-.32c-.547 0-.82.26-.82.78Zm11.058 5.36c.053 0 .093.027.12.08.04.053.04.093 0 .12-.493.493-.973.86-1.44 1.1-.467.227-.96.34-1.48.34-.587 0-1.087-.14-1.5-.42-.413-.28-.62-.753-.62-1.42v-4.44c0-.413-.073-.7-.22-.86-.147-.16-.413-.24-.8-.24-.013 0-.033-.02-.06-.06a.387.387 0 0 1 0-.24c.013-.04.033-.06.06-.06.68-.027 1.227-.173 1.64-.44.427-.267.753-.673.98-1.22.027-.053.08-.08.16-.08.093 0 .14.027.14.08v1.6c.773-.013 1.64-.073 2.6-.18.027 0 .053.053.08.16.04.093.06.2.06.32 0 .133-.027.267-.08.4-.04.12-.087.173-.14.16a12.973 12.973 0 0 0-2.52-.3v4.74c0 .507.127.88.38 1.12.267.24.613.36 1.04.36.533 0 1.053-.2 1.56-.6l.04-.02Zm15.619 1.16c.053 0 .08.04.08.12 0 .08-.027.12-.08.12-.347 0-.62-.007-.82-.02l-1.2-.02-1.16.02c-.214.013-.494.02-.84.02-.04 0-.06-.04-.06-.12 0-.08.02-.12.06-.12.413 0 .693-.093.84-.28.16-.2.24-.567.24-1.1V33.5c0-.72-.127-1.253-.38-1.6-.24-.347-.614-.52-1.12-.52-.347 0-.687.073-1.02.22-.334.147-.62.347-.86.6v4.18c0 .533.073.9.22 1.1.16.187.446.28.86.28.053 0 .08.04.08.12 0 .08-.027.12-.08.12-.347 0-.62-.007-.82-.02l-1.2-.02-1.16.02c-.214.013-.494.02-.84.02-.04 0-.06-.04-.06-.12 0-.08.02-.12.06-.12.413 0 .693-.093.84-.28.16-.2.24-.567.24-1.1V33.5c0-.72-.127-1.253-.38-1.6-.24-.347-.614-.52-1.12-.52-.32 0-.64.067-.96.2-.307.12-.58.293-.82.52v4.28c0 .533.073.9.22 1.1.16.187.446.28.86.28.04 0 .06.04.06.12 0 .08-.02.12-.06.12-.347 0-.62-.007-.82-.02l-1.2-.02-1.18.02c-.2.013-.474.02-.82.02-.04 0-.06-.04-.06-.12 0-.08.02-.12.06-.12.413 0 .693-.093.84-.28.146-.2.22-.567.22-1.1v-3.76c0-.413-.054-.713-.16-.9a.476.476 0 0 0-.46-.3c-.227 0-.547.093-.96.28h-.04c-.04 0-.074-.033-.1-.1-.014-.067-.007-.107.02-.12l2.78-1.36a.814.814 0 0 1 .14-.04c.146 0 .286.147.42.44.133.28.213.66.24 1.14.906-1.08 1.88-1.62 2.92-1.62.626 0 1.126.153 1.5.46.373.307.6.747.68 1.32.92-1.187 1.94-1.78 3.06-1.78.72 0 1.266.207 1.64.62.386.413.58 1.04.58 1.88v3.84c0 .533.073.9.22 1.1.16.187.446.28.86.28Zm8.947-.84c.053 0 .086.033.1.1.026.053.013.093-.04.12l-2.06.98a.447.447 0 0 1-.2.04c-.2 0-.4-.1-.6-.3-.187-.2-.32-.473-.4-.82l-.92.5c-.347.173-.707.32-1.08.44-.374.107-.707.16-1 .16-.427 0-.767-.107-1.02-.32-.24-.227-.36-.547-.36-.96 0-.307.073-.553.22-.74.16-.187.38-.34.66-.46.293-.133.753-.307 1.38-.52l2.04-.66V32.9c0-.8-.08-1.387-.24-1.76-.16-.387-.42-.58-.78-.58a.91.91 0 0 0-.76.36c-.187.24-.3.633-.34 1.18-.08.747-.474 1.12-1.18 1.12-.627 0-.94-.273-.94-.82 0-.36.226-.72.68-1.08.453-.36 1-.653 1.64-.88.64-.227 1.2-.34 1.68-.34.626 0 1.133.187 1.52.56.4.373.6.92.6 1.64v3.54c0 .387.066.687.2.9a.69.69 0 0 0 .6.32c.186 0 .38-.047.58-.14h.02Zm-3.26-.2a3.115 3.115 0 0 1-.02-.42v-1.48l-1.1.4c-.36.133-.62.28-.78.44a.826.826 0 0 0-.22.58c0 .28.08.5.24.66.16.16.36.24.6.24.293 0 .633-.093 1.02-.28l.26-.14Zm5.858-5.48c0 .387.133.72.4 1 .28.28.68.573 1.2.88.506.293.88.527 1.12.7.253.16.48.393.68.7.2.293.3.653.3 1.08 0 .453-.114.88-.34 1.28-.227.4-.567.727-1.02.98-.454.24-.994.36-1.62.36-.734 0-1.427-.18-2.08-.54-.08-.08-.12-.16-.12-.24l-.04-1.98c0-.04.033-.06.1-.06.08-.013.126-.007.14.02a3.95 3.95 0 0 0 1.06 1.7c.493.467.993.7 1.5.7.28 0 .5-.087.66-.26.173-.173.26-.427.26-.76 0-.493-.14-.88-.42-1.16-.28-.293-.694-.593-1.24-.9-.467-.253-.82-.46-1.06-.62a2.244 2.244 0 0 1-.64-.68c-.187-.293-.28-.653-.28-1.08 0-.787.28-1.36.84-1.72.56-.373 1.246-.56 2.06-.56.306 0 .58.02.82.06.253.04.533.12.84.24.12.04.18.113.18.22 0 .333-.007.593-.02.78l-.02 1c0 .04-.04.06-.12.06-.08 0-.12-.02-.12-.06 0-.253-.107-.527-.32-.82a2.796 2.796 0 0 0-.84-.78 1.904 1.904 0 0 0-1.04-.32c-.547 0-.82.26-.82.78ZM80.44 47.96c-1.587 0-2.727 1.033-3.42 3.1-.013.04-.053.06-.12.06-.067-.013-.1-.04-.1-.08.053-.533.113-1.22.18-2.06.067-.853.1-1.493.1-1.92 0-.067.033-.1.1-.1.08 0 .12.033.12.1 0 .293.38.44 1.14.44 1.147.04 2.487.06 4.02.06.787 0 1.62-.013 2.5-.04l1.36-.02c.507 0 .873-.033 1.1-.1.24-.067.393-.2.46-.4.013-.053.053-.08.12-.08.08 0 .12.027.12.08-.04.4-.087 1.04-.14 1.92-.04.88-.06 1.587-.06 2.12 0 .04-.033.06-.1.06s-.107-.02-.12-.06c-.2-1.027-.573-1.793-1.12-2.3-.547-.52-1.22-.78-2.02-.78-.387 0-.647.087-.78.26-.12.16-.18.473-.18.94v9.22c0 .413.04.713.12.9.08.187.233.313.46.38s.587.1 1.08.1c.04 0 .06.04.06.12 0 .08-.02.12-.06.12-.48 0-.86-.007-1.14-.02l-1.66-.02-1.62.02c-.28.013-.667.02-1.16.02-.04 0-.06-.04-.06-.12 0-.08.02-.12.06-.12.48 0 .833-.033 1.06-.1.24-.067.4-.193.48-.38.093-.2.14-.5.14-.9v-9.26c0-.453-.06-.76-.18-.92-.12-.16-.367-.24-.74-.24Zm12.95 4.12c.308 0 .6.113.88.34.294.213.44.473.44.78 0 .28-.086.513-.26.7-.172.173-.4.26-.68.26-.2 0-.366-.04-.5-.12-.12-.08-.246-.2-.38-.36a1.397 1.397 0 0 0-.32-.28.453.453 0 0 0-.3-.1c-.132 0-.28.053-.44.16-.146.093-.38.3-.7.62v4.3c0 .533.128.9.38 1.1.254.187.72.28 1.4.28.054 0 .08.04.08.12 0 .08-.026.12-.08.12-.466 0-.832-.007-1.1-.02l-1.62-.02-1.18.02c-.2.013-.472.02-.82.02-.04 0-.06-.04-.06-.12 0-.08.02-.12.06-.12.414 0 .694-.093.84-.28.148-.2.22-.567.22-1.1v-3.76c0-.413-.052-.713-.16-.9a.475.475 0 0 0-.46-.3c-.226 0-.546.093-.96.28h-.04c-.04 0-.072-.033-.1-.1-.012-.067-.006-.107.02-.12l2.78-1.36a.833.833 0 0 1 .14-.04c.148 0 .28.14.4.42.134.267.214.633.24 1.1.548-.56.994-.953 1.34-1.18.36-.227.674-.34.94-.34Zm9.325 6.6c.026 0 .053.027.08.08.04.053.046.093.02.12-.494.48-.994.827-1.5 1.04-.507.213-1.06.32-1.66.32-.84 0-1.567-.173-2.18-.52a3.67 3.67 0 0 1-1.4-1.42 4.02 4.02 0 0 1-.48-1.92c0-.773.2-1.487.6-2.14.4-.667.946-1.187 1.64-1.56.693-.387 1.466-.58 2.32-.58.826 0 1.46.18 1.9.54.44.347.66.827.66 1.44 0 .387-.074.58-.22.58h-1.22l-3.6.04c-.04.253-.06.533-.06.84 0 1.147.266 2.053.8 2.72.546.667 1.293 1 2.24 1 .333 0 .68-.047 1.04-.14.36-.093.686-.233.98-.42l.04-.02Zm-3.3-6.18c-.4 0-.747.16-1.04.48-.294.32-.507.76-.64 1.32l2.84-.06c-.04-1.16-.427-1.74-1.16-1.74Zm11.742 6.18c.027 0 .053.027.08.08.04.053.047.093.02.12-.493.48-.993.827-1.5 1.04-.507.213-1.06.32-1.66.32-.84 0-1.567-.173-2.18-.52a3.672 3.672 0 0 1-1.4-1.42 4.02 4.02 0 0 1-.48-1.92c0-.773.2-1.487.6-2.14.4-.667.947-1.187 1.64-1.56.693-.387 1.467-.58 2.32-.58.827 0 1.46.18 1.9.54.44.347.66.827.66 1.44 0 .387-.073.58-.22.58h-1.22l-3.6.04c-.04.253-.06.533-.06.84 0 1.147.267 2.053.8 2.72.547.667 1.293 1 2.24 1 .333 0 .68-.047 1.04-.14.36-.093.687-.233.98-.42l.04-.02Zm-3.3-6.18c-.4 0-.747.16-1.04.48-.293.32-.507.76-.64 1.32l2.84-.06c-.04-1.16-.427-1.74-1.16-1.74Zm6.459.74c0 .387.134.72.4 1 .28.28.68.573 1.2.88.507.293.88.527 1.12.7.254.16.48.393.68.7.2.293.3.653.3 1.08 0 .453-.113.88-.34 1.28-.226.4-.566.727-1.02.98-.453.24-.993.36-1.62.36-.733 0-1.426-.18-2.08-.54-.08-.08-.12-.16-.12-.24l-.04-1.98c0-.04.034-.06.1-.06.08-.013.127-.007.14.02a3.97 3.97 0 0 0 1.06 1.7c.494.467.994.7 1.5.7.28 0 .5-.087.66-.26.174-.173.26-.427.26-.76 0-.493-.14-.88-.42-1.16-.28-.293-.693-.593-1.24-.9-.466-.253-.82-.46-1.06-.62a2.256 2.256 0 0 1-.64-.68c-.186-.293-.28-.653-.28-1.08 0-.787.28-1.36.84-1.72.56-.373 1.247-.56 2.06-.56.307 0 .58.02.82.06.254.04.534.12.84.24.12.04.18.113.18.22 0 .333-.006.593-.02.78l-.02 1c0 .04-.04.06-.12.06-.08 0-.12-.02-.12-.06 0-.253-.106-.527-.32-.82a2.773 2.773 0 0 0-.84-.78 1.902 1.902 0 0 0-1.04-.32c-.546 0-.82.26-.82.78Z" fill="#00654E"/><g clip-path="url(#a)" fill-rule="evenodd" clip-rule="evenodd"><path d="M36.145-.074h1.335a306.002 306.002 0 0 0-4.23 8.015 76.857 76.857 0 0 0-3.563 8.313 15.262 15.262 0 0 0-1.039 6.68c.148.84.618 1.409 1.41 1.707 6.438.528 12.87.454 19.297-.223a112.369 112.369 0 0 1 3.415 4.305c-.07.177-.219.276-.446.297a104.905 104.905 0 0 1-20.484 1.187c-2.356 5.33-4.731 10.65-7.125 15.957a4.882 4.882 0 0 0 1.93.223 125.673 125.673 0 0 1 2.894-8.61 297.997 297.997 0 0 1 2.152 9.055c7.756.344 15.475-.002 23.157-1.039a82.26 82.26 0 0 0 3.71 4.602 86.701 86.701 0 0 1-12.765 1.707c-6.088.314-12.174.289-18.258-.075l-.594.149a28.78 28.78 0 0 0-4.972 7.718c-.937 1.972-.888 3.901.148 5.79a6.65 6.65 0 0 0 3.043 1.93 96.29 96.29 0 0 1-9.5-1.114c-2.499-.13-4.404-1.242-5.715-3.34-.767-2.01-.421-3.791 1.04-5.344 3.357-3.92 6.697-7.853 10.019-11.8a68.875 68.875 0 0 1-4.305-1.04c-3.214-1.79-3.684-4.14-1.41-7.05a721.26 721.26 0 0 0 11.207-13.434 38.824 38.824 0 0 0-3.562-.594c-2.628-.444-3.74-1.953-3.34-4.527A1190.112 1190.112 0 0 0 33.695 1.855a6.536 6.536 0 0 1 2.45-1.93Z" fill="#3DAD52"/><path opacity=".993" d="M37.48-.074h2.227c.76.286 1.428.731 2.004 1.336a663.017 663.017 0 0 0 14.547 17.96c.612 2.117-.106 3.577-2.153 4.38-1.566.375-3.15.647-4.75.816-6.426.677-12.858.751-19.296.223-.793-.298-1.263-.867-1.41-1.707a15.26 15.26 0 0 1 1.038-6.68A76.857 76.857 0 0 1 33.25 7.94a306.004 306.004 0 0 1 4.23-8.015Z" fill="#4CC067"/><path opacity=".995" d="M52.77 28.723a6258.95 6258.95 0 0 1 8.683 10.242c1.123 2.26.653 4.116-1.41 5.566a12.296 12.296 0 0 1-5.195 1.262 129.796 129.796 0 0 1-23.157 1.039 298.295 298.295 0 0 0-2.152-9.055 125.674 125.674 0 0 0-2.895 8.61 4.882 4.882 0 0 1-1.93-.223c2.395-5.308 4.77-10.627 7.126-15.957 6.863.274 13.691-.122 20.484-1.188.227-.02.376-.12.446-.296Z" fill="#4CC067"/><path opacity=".992" d="M58.559 50.395c2.319 2.79 4.669 5.56 7.05 8.312 1.428 2.807.81 5.058-1.855 6.754a14.706 14.706 0 0 1-4.527 1.262 208.453 208.453 0 0 1-5.79-7.422c-.074 2.72-.098 5.442-.074 8.164-2.864.28-5.733.478-8.61.594-4.552.178-9.105.178-13.655 0a52.324 52.324 0 0 1-5.938-.446 6.65 6.65 0 0 1-3.043-1.93c-1.036-1.888-1.085-3.817-.148-5.789a28.778 28.778 0 0 1 4.972-7.718l.594-.149c6.084.364 12.17.389 18.258.075a86.7 86.7 0 0 0 12.766-1.707Z" fill="#4DC067"/><path opacity=".98" d="M31.098 68.059c4.55.178 9.103.178 13.656 0 .224.873.372 1.763.445 2.672-2.943.148-5.911.197-8.906.148v4.898a19.319 19.319 0 0 1-6.086-1.633l-.148-.296c.362-1.929.708-3.858 1.039-5.79Z" fill="#7F4A26"/><path d="M45.2 70.73c.226.964.424 1.953.593 2.97l-.148.444a19.138 19.138 0 0 1-9.352 1.633V70.88c2.995.049 5.963 0 8.906-.148Z" fill="#925C34"/></g><defs><clipPath id="a"><path fill="#fff" d="M0 0h76v76H0z"/></clipPath></defs></svg>