<svg width="35" height="28" fill="none" xmlns="http://www.w3.org/2000/svg"><path d="M6.344 27.939V26.08c0-.71-.42-1.176-1.142-1.176-.361 0-.753.123-1.023.527-.21-.34-.512-.527-.963-.527a.96.96 0 0 0-.841.433v-.372h-.63v2.974h.63v-1.642c0-.527.27-.776.69-.776.42 0 .63.278.63.776v1.642h.63v-1.642c0-.527.302-.776.691-.776.42 0 .63.278.63.776v1.642h.698Zm9.352-2.974h-1.023v-.898h-.63v.898h-.571v.589h.57v1.364c0 .681.27 1.082.992 1.082.27 0 .571-.094.781-.216l-.182-.56a.986.986 0 0 1-.543.155c-.301 0-.42-.187-.42-.494v-1.331h1.023v-.588h.003Zm5.352-.064a.85.85 0 0 0-.753.433v-.372h-.63v2.973h.63v-1.674c0-.494.21-.776.603-.776.119 0 .27.032.392.061l.182-.62c-.126-.025-.305-.025-.424-.025Zm-8.088.31c-.3-.217-.721-.31-1.173-.31-.722 0-1.202.371-1.202.96 0 .494.361.775.992.865l.301.033c.33.061.511.155.511.31 0 .217-.241.372-.662.372a1.63 1.63 0 0 1-.963-.31l-.301.494c.33.249.781.371 1.233.371.84 0 1.324-.404 1.324-.96 0-.526-.392-.804-.991-.898l-.302-.032c-.27-.033-.48-.094-.48-.278 0-.217.21-.34.543-.34.361 0 .722.156.904.25l.266-.527Zm16.775-.31a.85.85 0 0 0-.753.433v-.372h-.63v2.973h.63v-1.674c0-.494.21-.776.603-.776.119 0 .27.032.392.061l.182-.613c-.122-.032-.301-.032-.424-.032Zm-8.056 1.551c0 .898.602 1.548 1.534 1.548.42 0 .722-.094 1.023-.34l-.301-.526c-.242.188-.48.278-.753.278-.512 0-.873-.372-.873-.96 0-.56.361-.93.872-.96.27 0 .512.094.754.278l.3-.527c-.3-.249-.602-.339-1.022-.339-.932-.003-1.534.65-1.534 1.548Zm5.832 0v-1.487h-.63v.372c-.21-.278-.512-.433-.904-.433-.813 0-1.443.65-1.443 1.548S25.164 28 25.977 28c.42 0 .721-.155.904-.433v.372h.63v-1.487Zm-2.315 0c0-.527.329-.96.872-.96.511 0 .872.404.872.96 0 .527-.36.96-.872.96-.54-.033-.872-.437-.872-.96ZM17.65 24.9c-.841 0-1.444.621-1.444 1.549 0 .93.603 1.547 1.475 1.547.42 0 .84-.122 1.174-.404l-.302-.465c-.241.187-.543.31-.84.31-.393 0-.781-.188-.872-.71h2.133v-.25c.028-.956-.515-1.576-1.324-1.576Zm0 .56c.392 0 .662.249.721.71H16.87c.06-.4.33-.71.782-.71Zm15.664.992V23.79h-.63v1.548c-.21-.278-.512-.433-.904-.433-.813 0-1.443.65-1.443 1.548S30.968 28 31.78 28c.42 0 .721-.155.904-.433v.372h.63v-1.487Zm-2.315 0c0-.527.33-.96.872-.96.511 0 .872.404.872.96 0 .527-.36.96-.872.96-.543-.033-.872-.437-.872-.96Zm-21.108 0v-1.487h-.63v.372c-.21-.278-.512-.433-.904-.433-.813 0-1.443.65-1.443 1.548S7.545 28 8.358 28c.42 0 .721-.155.903-.433v.372h.63v-1.487Zm-2.343 0c0-.527.329-.96.872-.96.511 0 .872.404.872.96 0 .527-.36.96-.872.96-.543-.033-.872-.437-.872-.96Z" fill="#000"/><path d="M22.222 2.385H12.75v17.529h9.472V2.385Z" fill="#FF5A00"/><path d="M13.38 11.15c0-3.562 1.626-6.723 4.12-8.765C15.665.898 13.35 0 10.824 0 4.84 0 0 4.987 0 11.15c0 6.162 4.84 11.149 10.824 11.149 2.525 0 4.84-.898 6.676-2.385-2.498-2.014-4.12-5.203-4.12-8.765Z" fill="#EB001B"/><path d="M35 11.15c0 6.162-4.84 11.149-10.824 11.149-2.525 0-4.84-.898-6.676-2.385 2.526-2.046 4.12-5.203 4.12-8.765 0-3.56-1.626-6.722-4.12-8.764A10.552 10.552 0 0 1 24.173 0C30.159 0 35 5.02 35 11.15Z" fill="#F79E1B"/></svg>