<svg width="100" height="100" fill="none" xmlns="http://www.w3.org/2000/svg"><path d="m48.379 7.91-1.504 3.027H40.723l2.304 2.305 2.305 2.324-1.191 3.008c-.664 1.66-1.387 3.438-1.582 3.945-.215.528-.313.899-.235.86a1791.8 1791.8 0 0 0 3.926-2.363L50 18.77l3.77 2.246c2.05 1.25 3.808 2.304 3.906 2.363.078.039-.02-.332-.235-.86-.195-.507-.918-2.285-1.582-3.945l-1.191-3.008 2.305-2.324 2.304-2.305H53.125L51.621 7.91C50.781 6.25 50.06 4.883 50 4.883c-.059 0-.781 1.367-1.621 3.027Z" fill="#DA0F0F"/><path d="M49.414 22.11c-2.793 5.078-7.832 9.921-13.144 12.675l-2.344 1.211.937.371c6.016 2.364 14.512 3.223 21.524 2.207 3.242-.488 9.648-2.207 9.629-2.597 0-.079-.606-.41-1.328-.723-5.43-2.422-11.114-7.715-14.102-13.145-.254-.449-.527-.82-.586-.82-.059 0-.332.371-.586.82ZM38.77 43.184c-3.653 3.691-8.594 7.46-12.247 9.355-.742.371-1.328.742-1.328.82 0 .176 2.89 1.895 4.883 2.891 3.887 1.953 8.887 3.516 13.477 4.238 3.125.469 9.765.469 12.89 0 4.649-.742 9.551-2.265 13.496-4.238 2.032-1.016 4.864-2.715 4.864-2.91 0-.078-.332-.293-.723-.488-2.031-.957-6.367-3.868-8.75-5.84-.644-.547-2.266-2.07-3.613-3.38-2.403-2.362-2.461-2.401-3.125-2.265l-.684.156-.058 2.07-.059 2.051.605.254c1.329.547 2.54 2.52 2.54 4.141 0 1.875-1.583 3.984-3.34 4.453-1.016.274-2.637.156-3.438-.254-1.445-.761-2.597-2.617-2.597-4.199 0-1.621 1.21-3.594 2.539-4.14l.586-.235V42.09h-4.532c-3.379-.02-5.117-.098-6.777-.371-1.211-.176-2.305-.39-2.441-.43-.118-.039-1.094.8-2.169 1.895Z" fill="#fff"/><path d="M29.883 61.66c-3.027 2.637-7.305 5.664-11.113 7.871-1.407.801-1.739 1.075-1.563 1.29.117.136 1.016.859 1.992 1.6 18.32 13.81 43.203 13.829 61.543.06.996-.743 1.914-1.485 2.031-1.641.176-.215-.273-.567-2.46-1.856-3.301-1.972-6.973-4.59-9.707-6.894l-2.07-1.758-1.505.586c-3.808 1.465-8.633 2.559-13.027 2.969-2.422.215-7.461.136-9.414-.137l-.84-.137v3.926l.586.234c1.328.547 2.539 2.52 2.539 4.141 0 1.875-1.582 3.984-3.34 4.453-1.015.274-2.636.156-3.437-.254-1.446-.761-2.598-2.617-2.598-4.199 0-1.621 1.211-3.594 2.54-4.14l.585-.235v-4.375l-2.188-.547a63.569 63.569 0 0 1-4.59-1.406c-1.308-.469-2.402-.86-2.44-.84-.04 0-.723.586-1.524 1.29Z" fill="#fff"/><path d="M44.824 86.426c-.078.547-.879 8.418-.879 8.75 0 .078 2.735.136 6.055.136 3.34 0 6.055-.058 6.055-.136 0-.332-.801-8.203-.88-8.75l-.097-.586H44.922l-.098.586Z" fill="#fff"/></svg>