<svg width="100" height="100" fill="none" xmlns="http://www.w3.org/2000/svg"><g clip-path="url(#a)"><path d="M17.266 15.02c-1.934.468-3.887 2.07-4.727 3.886-.43.938-.527 1.446-.586 3.203l-.078 2.11H6.758c-4.453 0-5.176.039-5.781.351-1.114.547-1.29 1.895-.352 2.774.41.39.645.39 11.191.39 7.383 0 10.977.059 11.407.215.625.215 1.191 1.016 1.191 1.719 0 .215-.215.645-.508.977l-.488.585-5.254.06c-5.176.058-5.273.058-5.703.507-.371.351-.469.723-.547 1.953l-.098 1.504-2.207.098c-2.03.097-2.246.136-2.597.566-.41.508-.488 1.406-.156 2.012.468.879 1.054.937 9.043.937h7.5l.507.606c.586.683.625 1.133.215 1.914-.449.898-1.094.996-6.386.996H12.87l-.469.488c-.468.45-.488.566-.488 3.125v2.676l.566.566.567.567h5.41c6.504 0 6.738.058 6.738 1.855 0 .488-.156.781-.605 1.153l-.605.507h-5.352c-6.7 0-6.7 0-6.719 2.48v1.407l-5.488.059-5.488.058-.47.547c-.644.762-.605 1.582.098 2.305l.567.566H11.914v14.61l.606.507c.488.41.8.508 1.66.508 1.953 0 2.617-.742 2.617-2.91 0-3.242 2.383-7.676 5.313-9.883 4.296-3.242 9.765-3.906 14.394-1.738 4.785 2.246 7.637 6.21 8.223 11.445.254 2.325.312 2.442.976 2.793.488.254 2.149.293 11.035.293h10.489l.566-.566.566-.586-.039-27.5-.058-27.5-.547-1.172c-.918-1.953-2.461-3.3-4.434-3.887-.937-.273-3.515-.312-23.222-.293-12.207.02-22.461.078-22.793.157Zm17.187 20.937c.586.684.625 1.133.215 1.934-.39.761-1.387 1.035-3.3.937-1.31-.059-1.544-.137-2.012-.586-.723-.722-.704-1.816.039-2.441.468-.41.703-.45 2.539-.45 2.011 0 2.011 0 2.52.606ZM22.48 57.793c.762.781.762 1.602 0 2.383l-.566.566H18.79c-2.812 0-3.164-.039-3.613-.39-.606-.489-.82-1.27-.508-1.993.39-.976.938-1.113 4.238-1.132h3.008l.566.566ZM72.441 40.02l-.566.566V62.87l.469.547c.683.8 1.68.742 2.969-.195 7.656-5.528 18.456-2.012 21.581 7.03.215.626.489 2.013.606 3.067.234 2.09.527 2.657 1.406 2.657 1.075 0 1.094-.157 1.094-8.829 0-4.785-.078-8.144-.195-8.457-.39-1.035-.782-1.074-10.04-1.074-8.085 0-8.554-.02-9.57-.39-2.03-.762-3.554-2.383-4.218-4.473-.352-1.113-.391-1.777-.391-6.7v-5.468l-.567-.566c-.43-.41-.761-.567-1.288-.567-.528 0-.86.156-1.29.566Z" fill="#fff"/><path d="m79.688 40-.586.586v5.352c0 4.765.039 5.41.37 6.113.41.898 1.055 1.543 1.837 1.836.351.136 3.261.215 8.242.215h7.676l.507-.606c.274-.332.508-.8.508-1.074 0-.45-2.148-3.77-5.508-8.516-1.465-2.09-2.753-3.164-4.628-3.906-.938-.371-1.563-.43-4.454-.508l-3.379-.078-.585.586ZM2.871 46.68c-.605.488-.82 1.27-.508 1.992.352.86 1.094 1.133 3.008 1.133 2.324 0 3.008-.41 3.028-1.817 0-.527-.137-.879-.489-1.21-.43-.45-.605-.489-2.5-.489-1.738 0-2.11.059-2.539.39Z" fill="#fff"/><path d="M28.613 64.297c-1.797.332-3.77 1.445-5.273 2.969-2.149 2.168-3.027 4.316-3.027 7.343 0 3.047.898 5.215 3.007 7.344 3.36 3.36 8.067 4.14 12.266 2.012 1.387-.703 3.203-2.344 4.082-3.711 2.129-3.32 2.129-7.969-.02-11.309-.918-1.425-2.754-3.027-4.355-3.789-2.148-1.035-4.336-1.308-6.68-.86ZM81.348 64.297c-1.739.312-3.79 1.465-5.196 2.87-2.09 2.09-3.105 4.513-3.105 7.442 0 2.93 1.016 5.352 3.105 7.442 2.598 2.597 6.211 3.652 9.746 2.812 2.618-.625 4.98-2.324 6.524-4.668 2.129-3.261 2.129-7.89 0-11.172-2.422-3.71-6.719-5.566-11.074-4.726Z" fill="#F88506"/></g><defs><clipPath id="a"><path fill="#fff" d="M0 0h100v100H0z"/></clipPath></defs></svg>