<svg width="67" height="22" fill="none" xmlns="http://www.w3.org/2000/svg"><g clip-path="url(#a)"><path d="M29.033 21.683h-5.427L27 .386h5.428l-3.395 21.297ZM48.708.907C47.638.476 45.94 0 43.84 0c-5.36 0-9.134 2.9-9.157 7.046-.044 3.058 2.702 4.757 4.757 5.777 2.1 1.042 2.813 1.723 2.813 2.652-.021 1.426-1.696 2.084-3.26 2.084-2.166 0-3.327-.34-5.092-1.133l-.714-.34-.76 4.78c1.273.589 3.619 1.111 6.053 1.134 5.695 0 9.403-2.855 9.447-7.273.022-2.425-1.429-4.282-4.556-5.8-1.898-.974-3.06-1.632-3.06-2.629.022-.906.983-1.834 3.125-1.834 1.765-.046 3.061.385 4.043.815l.491.226.738-4.598ZM55.922 14.138c.447-1.223 2.167-5.959 2.167-5.959-.023.046.446-1.246.714-2.039l.38 1.835s1.027 5.098 1.25 6.163h-4.511Zm6.7-13.752h-4.199c-1.294 0-2.278.385-2.836 1.767l-8.062 19.53h5.695l1.139-3.195h6.968c.156.747.648 3.194.648 3.194H67L62.621.386ZM19.073.386l-5.316 14.522-.58-2.945c-.983-3.399-4.065-7.09-7.504-8.927L10.54 21.66h5.74L24.81.386h-5.738Z" fill="#00579F"/><path d="M8.822.386H.089L0 .816c6.812 1.768 11.323 6.028 13.177 11.148l-1.899-9.788C10.966.816 10.005.431 8.822.386Z" fill="#FAA61A"/></g><defs><clipPath id="a"><path fill="#fff" d="M0 0h67v22H0z"/></clipPath></defs></svg>