<svg width="40" height="40" fill="none" xmlns="http://www.w3.org/2000/svg"><path d="M27.871 23.434c-.426-.22-2.547-1.258-2.941-1.399-.395-.148-.684-.219-.97.219-.288.433-1.108 1.398-1.366 1.691-.25.29-.504.325-.93.11-2.531-1.266-4.191-2.258-5.86-5.121-.44-.762.442-.707 1.266-2.352.14-.289.07-.535-.039-.754-.11-.219-.968-2.336-1.328-3.2-.348-.839-.707-.722-.969-.737-.25-.016-.535-.016-.824-.016-.289 0-.754.11-1.148.535-.395.434-1.508 1.477-1.508 3.594s1.543 4.168 1.754 4.457c.219.289 3.035 4.633 7.36 6.504 2.734 1.18 3.804 1.281 5.171 1.078.832-.125 2.547-1.04 2.902-2.05.356-1.009.356-1.872.25-2.052-.105-.191-.394-.3-.82-.507Z" fill="#fff"/><path d="M36.14 13.219A17.505 17.505 0 0 0 32.38 7.62 17.357 17.357 0 0 0 26.78 3.86 17.416 17.416 0 0 0 20 2.5h-.078A17.46 17.46 0 0 0 7.559 7.672a17.342 17.342 0 0 0-3.72 5.578A17.506 17.506 0 0 0 2.5 20.082c.012 2.711.66 5.402 1.875 7.809v5.937c0 .992.805 1.797 1.797 1.797h5.941a17.554 17.554 0 0 0 7.809 1.875h.082c2.34 0 4.61-.453 6.746-1.34a17.363 17.363 0 0 0 5.578-3.719A17.458 17.458 0 0 0 37.5 20.078a17.433 17.433 0 0 0-1.36-6.86Zm-5.902 17.11A14.454 14.454 0 0 1 20 34.53h-.066a14.582 14.582 0 0 1-6.762-1.699l-.328-.176h-5.5v-5.5l-.176-.328a14.582 14.582 0 0 1-1.7-6.762c-.015-3.894 1.473-7.55 4.204-10.304 2.726-2.754 6.37-4.278 10.265-4.293h.067c1.953 0 3.848.379 5.633 1.129a14.437 14.437 0 0 1 4.648 3.125 14.457 14.457 0 0 1 3.125 4.648 14.47 14.47 0 0 1 1.129 5.695c-.023 3.891-1.55 7.536-4.3 10.262Z" fill="#fff"/></svg>