<svg width="40" height="40" fill="none" xmlns="http://www.w3.org/2000/svg"><path d="M37.5 19.89c0-.085 0-.183-.004-.296-.004-.317-.012-.672-.02-1.051a58.907 58.907 0 0 0-.171-3.2c-.117-1.41-.29-2.585-.524-3.468a5.45 5.45 0 0 0-3.84-3.848c-1.105-.297-3.27-.48-6.316-.593-1.45-.055-3-.09-4.55-.11-.544-.008-1.048-.011-1.5-.015h-1.15c-.452.003-.956.007-1.5.015-1.55.02-3.1.055-4.55.11-3.047.117-5.215.3-6.316.593a5.443 5.443 0 0 0-3.84 3.848c-.239.883-.406 2.059-.524 3.469a58.817 58.817 0 0 0-.172 3.199c-.011.379-.015.734-.02 1.05 0 .114-.003.212-.003.298v.218c0 .086 0 .184.004.297.004.317.012.672.02 1.051.03 1.09.085 2.176.171 3.2.118 1.41.29 2.585.524 3.468a5.443 5.443 0 0 0 3.84 3.848c1.101.297 3.27.48 6.316.593 1.45.055 3 .09 4.55.11.544.008 1.048.011 1.5.015h1.15c.452-.004.956-.007 1.5-.015 1.55-.02 3.1-.055 4.55-.11 3.047-.117 5.215-.3 6.316-.593a5.436 5.436 0 0 0 3.84-3.848c.239-.883.407-2.059.524-3.469.086-1.023.14-2.11.172-3.199.011-.379.015-.734.02-1.05 0-.114.003-.212.003-.298v-.218Zm-2.813.204c0 .082 0 .172-.003.277-.004.305-.012.64-.02 1.004a52.896 52.896 0 0 1-.164 3.043c-.105 1.258-.254 2.289-.438 2.98a2.628 2.628 0 0 1-1.851 1.856c-.82.219-2.887.394-5.695.5a177.725 177.725 0 0 1-5.957.121H19.44l-1.476-.012a178.18 178.18 0 0 1-4.48-.11c-2.81-.108-4.88-.28-5.696-.5a2.635 2.635 0 0 1-1.851-1.855c-.184-.691-.333-1.722-.438-2.98a56.584 56.584 0 0 1-.164-3.043c-.012-.363-.016-.703-.02-1.004 0-.105-.003-.2-.003-.277v-.188c0-.082 0-.172.003-.277.004-.305.012-.64.02-1.004.027-1.04.082-2.078.164-3.043.105-1.258.254-2.289.438-2.98a2.628 2.628 0 0 1 1.851-1.856c.82-.219 2.887-.394 5.695-.5a177.254 177.254 0 0 1 5.957-.121h1.118l1.476.012c1.527.02 3.055.054 4.48.11 2.81.108 4.88.28 5.696.5.898.241 1.61.952 1.852 1.855.183.691.331 1.722.437 2.98.082.965.133 2.004.164 3.043.012.363.016.703.02 1.004 0 .105.004.2.004.277v.188Zm-18.164 5.14 9.063-5.273-9.063-5.195v10.468Z" fill="#fff"/></svg>